<?xml version="1.0" encoding="UTF-8" standalone="no"?>
<!-- Created with Inkscape (http://www.inkscape.org/) -->

<svg
   xmlns:dc="http://purl.org/dc/elements/1.1/"
   xmlns:cc="http://creativecommons.org/ns#"
   xmlns:rdf="http://www.w3.org/1999/02/22-rdf-syntax-ns#"
   xmlns:svg="http://www.w3.org/2000/svg"
   xmlns="http://www.w3.org/2000/svg"
   xmlns:sodipodi="http://sodipodi.sourceforge.net/DTD/sodipodi-0.dtd"
   xmlns:inkscape="http://www.inkscape.org/namespaces/inkscape"
   width="297mm"
   height="210mm"
   viewBox="0 0 1052.3622 744.09448"
   id="svg2"
   version="1.1"
   inkscape:version="0.91 r13725"
   sodipodi:docname="intuition.svg"
   inkscape:export-filename="/Volumes/ExtraDiskSpace/Documents/general/assets/intuition.png"
   inkscape:export-xdpi="90"
   inkscape:export-ydpi="90">
  <defs
     id="defs4" />
  <sodipodi:namedview
     id="base"
     pagecolor="#ffffff"
     bordercolor="#666666"
     borderopacity="1.0"
     inkscape:pageopacity="0.0"
     inkscape:pageshadow="2"
     inkscape:zoom="0.7"
     inkscape:cx="543.77943"
     inkscape:cy="388.08929"
     inkscape:document-units="px"
     inkscape:current-layer="layer1"
     showgrid="false"
     inkscape:window-width="1356"
     inkscape:window-height="723"
     inkscape:window-x="9"
     inkscape:window-y="0"
     inkscape:window-maximized="0" />
  <metadata
     id="metadata7">
    <rdf:RDF>
      <cc:Work
         rdf:about="">
        <dc:format>image/svg+xml</dc:format>
        <dc:type
           rdf:resource="http://purl.org/dc/dcmitype/StillImage" />
        <dc:title></dc:title>
      </cc:Work>
    </rdf:RDF>
  </metadata>
  <g
     inkscape:label="Layer 1"
     inkscape:groupmode="layer"
     id="layer1"
     transform="translate(0,-308.26772)">
    <path
       style="opacity:1;fill:#2e2e2e;fill-opacity:0.94117647;stroke:none;stroke-width:0.1;stroke-miterlimit:4;stroke-dasharray:none;stroke-opacity:1"
       id="path4157"
       d="m 206.67782,530.93537 c 1.30841,2.74776 1.65616,5.74134 2.06604,8.63337 0.71544,7.06886 0.65381,14.16802 0.66836,21.25312 0.053,12.91075 -0.39873,25.82009 -0.93121,38.72341 -0.80248,17.58233 -1.65934,35.16319 -2.43837,52.74631 -0.70765,19.88836 -1.15834,39.78209 -1.63202,59.67457 -0.34288,15.38449 -0.24105,30.77279 -0.99032,46.15052 -0.22757,7.34392 -1.21245,14.64431 -2.41921,21.92454 -0.28638,2.11238 -0.74826,4.22456 -1.6193,6.24549 -0.44741,1.64457 -5.38377,4.32405 -6.07444,2.34669 10.37435,-3.98811 4.89718,-1.60007 0.0641,-0.0753 -0.14274,0.0451 -0.003,-0.23626 -0.008,-0.35436 -0.013,-0.0703 -0.002,-0.14207 0.004,-0.2129 4.90432,-2.62994 6.30754,-2.57288 11.29167,-3.20937 5.54813,-0.62025 11.16813,-0.78394 16.7588,-1.07635 10.97137,-0.76228 21.98444,-1.07765 32.98668,-1.45873 17.25127,-0.82505 34.50482,-0.1766 51.74186,0.4545 22.55621,1.02549 45.1119,2.04891 67.67426,2.99448 24.92732,0.93304 49.85595,1.85218 74.79846,2.51254 25.08858,0.81181 50.18949,0.44535 75.27348,-0.20863 25.31078,-0.93273 50.62317,-1.8058 75.94222,-2.59458 25.11832,-0.83489 50.25733,-1.07793 75.39501,-1.25314 15.5066,-0.13085 31.01981,0.0202 46.50571,-0.69205 0.78439,-0.089 1.56878,-0.17798 2.35315,-0.26697 0,0 -4.9362,2.81574 -4.9362,2.81574 l 0,0 c -0.75186,0.056 -1.50362,0.11209 -2.25539,0.16814 -15.24655,0.40509 -30.4994,0.15237 -45.75179,0.24979 -25.12376,0.14277 -50.24887,0.44021 -75.35334,1.24538 -25.32916,0.79099 -50.65083,1.6778 -75.97193,2.60799 -25.0872,0.65027 -50.19042,0.98495 -75.28173,0.18055 -24.962,-0.66103 -49.90985,-1.58583 -74.85859,-2.48865 -22.61866,-0.92066 -45.22945,-1.93933 -67.84527,-2.89642 -17.32287,-0.57996 -34.66303,-1.15062 -51.9914,-0.26714 -11.09378,0.42946 -22.19826,0.79882 -33.25696,1.62419 -5.64001,0.32639 -11.31318,0.51096 -16.9005,1.21183 -1.38734,0.17784 -2.77687,0.33518 -4.15944,0.53267 -2.90699,0.41522 -4.31908,0.2098 3.47938,-2.51958 0.0393,0.10384 0.0518,0.20907 0.0455,0.31943 4.9e-4,0.0349 0.006,0.37228 0.002,0.37461 -4.04616,1.96702 -10.97385,4.70974 -0.099,-0.0215 0.23677,1.63842 -7.34771,3.73552 -5.33436,2.00863 1.08338,-1.98137 1.56134,-4.12775 1.93579,-6.24375 1.36869,-7.32049 2.56111,-14.66098 2.89499,-22.06108 1.01941,-15.43158 1.07829,-30.88229 1.47782,-46.32794 0.53089,-19.89044 1.0167,-39.78142 1.60738,-59.67067 0.70804,-17.55186 1.50689,-35.10144 2.20214,-52.65341 0.44389,-12.84857 0.78658,-25.70358 0.54631,-38.55686 -0.10617,-7.03254 -0.11993,-14.08098 -0.93952,-21.09123 -0.43949,-2.81273 -0.81821,-5.74371 -2.18364,-8.39425 0,0 5.51688,-2.40361 5.51688,-2.40361 z"
       inkscape:connector-curvature="0" />
    <path
       style="opacity:1;fill:#4d8dc2;fill-opacity:0.80571433;stroke:none;stroke-width:0.1;stroke-miterlimit:4;stroke-dasharray:none;stroke-opacity:1"
       id="path4172"
       d="m 215.9778,582.2552 c 2.69302,0.0368 5.3864,0.0403 8.07962,0.0538 5.84144,-0.0701 11.67618,0.15467 17.51287,0.35525 7.67867,0.25165 15.36145,0.31154 23.0434,0.3525 7.3634,-0.13409 14.72343,-0.39904 22.08685,-0.53865 6.47184,-0.20644 12.93854,-0.0521 19.40678,0.16991 5.53693,0.20283 11.07686,0.28458 16.61688,0.32244 4.57442,0.0264 9.14894,0.0162 13.72341,0.0108 3.21576,3.2e-4 6.4315,-0.015 9.64719,-0.0363 0.86186,-0.008 1.72382,-0.0138 2.58555,-0.0328 1.50418,-0.0969 -1.90981,2.27264 -3.26431,2.34533 8.69245,-6.21126 0.23896,-0.009 0.044,-0.003 8.63115,-6.19525 0.23525,-0.008 0.006,-2.5e-4 -0.15683,-0.003 -0.31369,-5.8e-4 -0.4705,5.8e-4 1.54247,-0.54502 3.30363,-3.25575 3.23025,-1.5135 0.002,0.0147 -0.0187,0.0226 -0.0279,0.034 0.0946,0.8547 -0.33234,1.77033 -0.55281,2.58262 -0.68396,3.27795 -0.68408,6.66235 -0.7676,9.99941 -0.14968,6.93844 0.26645,13.87577 0.69326,20.7973 0.66177,9.47268 1.16454,18.95138 1.4478,28.44386 0.24665,10.21876 0.26491,20.44131 0.28889,30.66258 0.0339,9.36284 0.0593,18.7234 -0.15914,28.0839 -0.2866,8.23176 -0.36986,16.4623 -0.0387,24.69279 0.37889,6.74838 1.19149,13.45749 1.7586,20.18951 0.24632,3.00069 0.42818,6.00678 0.58466,9.01373 0.0996,1.93318 0.2001,1.08568 -3.41795,2.36555 -0.20741,0.0733 -10e-4,-0.4501 -0.002,-0.67515 -0.0423,-1.15582 0.0342,-2.29442 0.19163,-3.43815 0.30455,-2.55 0.65022,-5.09146 0.86079,-7.65236 0.52611,-5.04996 0.94398,-10.10898 1.36519,-15.16889 0.67878,-7.71879 0.76029,-15.47115 1.02008,-23.21129 0.2943,-9.93141 0.63377,-19.86065 1.2661,-29.77604 0.66734,-9.54537 2.39517,-18.94785 4.44292,-28.26813 1.70901,-7.60253 4.49492,-14.88313 7.44877,-22.05194 2.40551,-5.32046 4.54993,-10.74768 6.57628,-16.22897 0.90371,-2.63649 1.85461,-5.25542 2.54075,-7.9625 0.16832,-0.69073 0.27514,-1.39453 0.28038,-2.10659 9.1e-4,-0.13242 -0.009,-0.26566 -0.015,-0.39744 0.0168,0.13769 -0.0192,-0.33714 -0.0201,-0.42841 -4.5e-4,-0.0862 -0.002,-0.17231 -0.003,-0.25846 0.0234,-0.58318 0.0213,-1.16724 0.0177,-1.75082 -0.006,-0.52351 -0.004,-1.04703 -0.006,-1.57055 -0.0587,-0.89371 0.10647,-1.75526 0.28857,-2.62359 0.25982,-1.12438 0.31409,-2.27947 0.35883,-3.42931 0.0328,-1.25309 0.0319,-2.50692 0.0151,-3.76026 -0.0204,-0.50226 -0.0308,-0.99478 0.0503,-1.49102 0.18762,-0.70487 0.38124,-1.40634 0.50006,-2.12738 0.031,-0.19296 0.053,-0.38724 0.0746,-0.58146 0.88087,-0.79437 2.41277,-1.89191 3.84952,-2.02011 0.71842,-0.0379 1.43922,-0.0294 2.15848,-0.0284 1.71216,-0.003 3.42431,0.005 5.13646,0.009 2.87537,0.005 5.75073,0.0159 8.6261,0.023 4.44674,-0.0862 8.88401,0.12181 13.32412,0.33145 5.4738,0.26389 10.93992,0.64002 16.41737,0.83533 5.62901,0.27967 11.2583,-0.0178 16.88465,-0.20345 5.50974,-0.18369 11.02236,-0.22789 16.53454,-0.25109 5.72653,0.0711 11.43953,0.51061 17.12225,1.22074 5.52859,0.68826 11.03674,1.53087 16.57835,2.10565 5.45338,0.7107 10.93898,1.02585 16.4298,1.20133 5.73244,0.0405 11.45791,0.21685 17.18571,0.44419 4.86573,0.16428 9.7186,0.57431 14.58238,0.79267 2.89028,0.12277 5.78289,0.15873 8.6753,0.16296 1.10562,-0.0775 2.18283,-0.35435 3.26044,-0.6027 0.1885,-0.0437 0.37741,-0.0869 0.56333,-0.14051 0,-0.003 0.004,-0.005 0.004,-0.005 0.059,0.16808 0.1451,0.3286 0.17692,0.50423 0.0245,0.13505 -0.0899,0.26576 -0.084,0.40298 0.0205,0.4717 0.10298,0.93843 0.15863,1.40713 0.73379,4.38685 1.54418,8.76017 2.30069,13.14322 1.73367,8.90023 3.0522,17.87121 4.24014,26.86241 1.4302,11.7827 2.48112,23.61467 3.45561,35.44556 0.84161,11.45993 1.95911,22.89399 3.25246,34.30864 1.11625,9.60037 2.40301,19.17862 3.85626,28.73115 1.04062,6.79232 2.43601,13.51716 3.78653,20.24923 0.85038,4.04702 1.73945,8.08548 2.51665,12.14824 0.20022,1.16715 0.39951,2.33591 0.53364,3.51343 0.18014,0.71774 -0.34528,-0.15209 0.008,-0.13169 1.53831,-0.0305 1.24044,-0.49105 -2.87659,1.86526 0.0965,-0.87261 0.27,-1.73341 0.45496,-2.59291 0.72756,-3.82793 1.05775,-7.71811 1.31235,-11.60454 0.33409,-7.3723 0.38946,-14.75295 0.617,-22.12936 0.21814,-9.86642 0.74292,-19.71911 1.49867,-29.55639 0.88874,-12.01364 2.93756,-23.89224 4.89769,-35.75864 1.85481,-10.96836 3.94203,-21.89206 6.05585,-32.81016 1.67335,-8.58402 3.10983,-17.21366 4.70404,-25.81295 0.89747,-4.75197 2.30963,-9.35041 4.27045,-13.74541 0.65183,-1.34549 1.4024,-2.63594 2.02959,-3.99419 0.0764,-0.067 0.10535,-0.47577 0.22273,-0.34953 -0.0241,-0.20533 -0.24473,-0.28427 -0.4132,-0.37397 -0.0359,-0.0456 -0.12508,-0.0374 -0.14808,-0.0409 2.34804,-2.10425 3.19265,-2.47092 5.72429,-2.96651 3.30502,-0.8162 6.70845,-0.95859 10.08992,-1.09747 5.978,-0.16201 11.95916,-0.13288 17.93868,-0.13071 7.6551,0.0152 15.31016,0.0203 22.96528,0.0236 7.78646,-0.004 15.57294,0.003 23.3594,0.004 7.6777,-0.009 15.33109,-0.59166 22.9676,-1.35209 6.48935,-0.73573 12.96162,-1.61718 19.4462,-2.39383 4.6376,-0.60605 9.27505,-1.20367 13.91124,-1.82116 1.61417,-0.19728 3.22815,-0.40035 4.84677,-0.55631 0.97975,-0.0715 0.13433,0.71465 -0.0756,0.95268 0,0 -3.54068,1.5661 -3.54068,1.5661 l 0,0 c 0.11629,-0.19269 0.1742,-0.61464 0.38661,-0.55226 0.9407,0.27639 0.29473,0.41324 0.12009,0.39146 -1.5729,0.11345 -3.1411,0.28731 -4.70741,0.47098 -4.60126,0.57594 -9.20254,1.14749 -13.80259,1.7337 -6.46667,0.76956 -12.92302,1.62872 -19.39574,2.3461 -7.63484,0.73643 -15.28599,1.29928 -22.95954,1.30382 -7.78693,-1.6e-4 -15.57386,0.005 -23.36079,-0.003 -7.66956,-0.003 -15.33913,-0.007 -23.00869,0.009 -6.0114,0.0145 -12.02491,0.006 -18.03344,0.22142 -3.41365,0.17044 -6.8431,0.37491 -10.17129,1.23621 -2.23392,0.5149 -4.58733,1.77747 0.51469,-1.6423 0.0621,0.0472 0.12791,0.0889 0.19473,0.12955 0.23201,0.15693 0.48051,0.33367 0.55387,0.60759 0.1211,0.25961 0.0223,0.38663 -0.10872,0.64605 -0.66415,1.37794 -1.43525,2.6931 -2.14799,4.04422 -2.05813,4.38802 -3.5829,8.98109 -4.52187,13.7657 -1.67356,8.61514 -3.12388,17.27435 -4.83809,25.8816 -2.14558,10.93267 -4.27554,21.86892 -6.16225,32.85259 -1.97856,11.83758 -3.9739,23.69614 -4.82597,35.68811 -0.73851,9.81601 -1.23066,19.64808 -1.41207,29.49266 -0.18519,7.35307 -0.21327,14.70808 -0.45556,22.05923 -0.21232,3.87051 -0.49623,7.74198 -1.11801,11.5691 -0.17015,0.85182 -0.36252,1.70331 -0.37611,2.57239 -4.04831,2.64728 -2.04821,1.96575 -3.73056,2.24202 -0.31961,0.14107 -0.42393,-0.29222 -0.34011,-0.42605 -0.0446,-1.18779 -0.23787,-2.36527 -0.40037,-3.53989 -0.67424,-4.09542 -1.5633,-8.14827 -2.37964,-12.21544 -1.29961,-6.76529 -2.64473,-13.52393 -3.64661,-20.34457 -1.40666,-9.57621 -2.67928,-19.17297 -3.76948,-28.79287 -1.26153,-11.43118 -2.34392,-22.881 -3.19107,-34.35295 -0.97174,-11.81549 -2.0219,-23.63405 -3.51571,-35.39306 -1.23011,-8.95559 -2.59682,-17.89104 -4.43264,-26.74044 -0.80027,-4.35473 -1.65939,-8.69639 -2.53068,-13.03645 -0.0191,-0.12488 -0.659,-2.80257 0.0145,-1.70264 -0.1824,0.0342 -0.36381,0.0748 -0.5455,0.11287 -1.07334,0.2264 -2.14819,0.47241 -3.24998,0.48761 -2.86283,-0.0376 -5.72543,-0.11131 -8.58553,-0.24841 -4.84064,-0.25129 -9.67187,-0.6664 -14.51615,-0.83793 -5.72657,-0.23314 -11.45168,-0.39282 -17.18285,-0.44286 -5.49855,-0.18104 -10.99069,-0.49812 -16.45117,-1.21755 -5.53842,-0.58944 -11.04628,-1.42269 -16.57236,-2.11813 -5.6761,-0.6956 -11.38199,-1.12886 -17.10068,-1.18007 -5.51075,0.0329 -11.02197,0.0801 -16.53042,0.26045 -5.63064,0.18604 -11.26403,0.46477 -16.89719,0.18202 -5.48733,-0.20395 -10.96484,-0.57429 -16.45011,-0.81513 -4.45785,-0.19411 -8.91296,-0.38481 -13.37639,-0.27217 -2.89572,0.006 -5.79144,0.0172 -8.68715,0.0225 -1.72595,0.005 -3.45191,0.0108 -5.17781,0.0252 -0.73076,0.0119 -1.4616,0.0226 -2.1914,0.065 -1.89188,-0.0334 1.93285,-2.26689 2.76107,-2.11902 -0.0101,0.21191 -0.0494,0.42119 -0.0801,0.63072 -0.12193,0.72977 -0.29047,1.44374 -0.49594,2.1538 -0.14637,0.45634 -0.073,0.93436 -0.0979,1.41185 -0.0143,1.26163 -0.0175,2.52339 -0.0362,3.78497 -0.0231,1.1675 -0.0639,2.34203 -0.30886,3.48695 -0.18881,0.83991 -0.38398,1.6638 -0.29956,2.53236 -0.002,0.52547 -2.2e-4,1.05096 -0.006,1.57643 -0.003,0.57937 -0.006,1.15916 0.0169,1.73815 -0.003,0.0861 -0.006,0.1722 -0.007,0.25837 -10e-4,0.17965 -0.0356,0.28205 -0.004,0.35966 0.0254,0.15651 0.0346,0.3149 0.0307,0.4744 -0.006,0.75308 -0.0963,1.4941 -0.28778,2.22379 -0.75812,2.73865 -1.73353,5.39874 -2.68113,8.073 -2.08457,5.49393 -4.23836,10.95531 -6.68333,16.2941 -2.99207,7.16147 -5.80751,14.43914 -7.56526,22.03802 -2.09157,9.30842 -3.83443,18.70723 -4.52574,28.24867 -0.64501,9.89984 -0.97031,19.81444 -1.20797,29.73279 -0.22352,7.72366 -0.26389,15.4584 -0.8894,23.16393 -0.38614,5.03472 -0.7592,10.06974 -1.22839,15.09724 -0.17985,2.55322 -0.49514,5.08648 -0.76712,7.62996 -0.14655,1.12218 -0.23898,2.23052 -0.17156,3.3644 10e-4,0.22205 0.18829,0.54167 0.009,0.66606 -3.93385,2.72956 -3.42615,3.23031 -3.43233,1.23736 -0.0193,-3.03862 -0.16476,-6.07493 -0.36878,-9.10602 -0.50383,-6.75791 -1.2814,-13.49105 -1.65835,-20.25936 -0.31875,-8.24564 -0.24338,-16.49074 0.0723,-24.73651 0.24523,-9.36727 0.24321,-18.73519 0.22097,-28.10558 -0.008,-10.21853 -0.0203,-20.43861 -0.28285,-30.65431 -0.29305,-9.4757 -0.81333,-18.93572 -1.52719,-28.38811 -0.46641,-6.90132 -0.92778,-13.81579 -0.87345,-20.73736 0.0398,-3.33589 -10e-6,-6.711 0.58217,-10.00471 0.17438,-0.75917 0.42854,-1.58356 0.58964,-2.30962 -0.0264,-0.0607 -0.0484,-0.11255 -0.0421,-0.18267 -0.0188,-1.61168 1.20749,-1.92046 3.38489,-2.64193 0.15583,0.003 0.3117,0.003 0.46753,6e-4 0.0233,5.8e-4 0.0883,-0.0121 0.07,0.003 -1.97335,1.58686 -6.0942,4.67431 -0.0748,-0.003 0.0211,5.8e-4 0.042,0.003 0.063,0.003 -1.00004,0.78149 -2.00009,1.56298 -3.00015,2.34449 -0.027,0.0211 -0.12868,0.017 -0.10185,-0.005 0.99063,-0.79372 1.99981,-1.56279 2.99973,-2.34418 1.38322,0.0852 -1.75636,2.44111 -3.02837,2.34511 -0.83301,-0.0189 -1.66629,-0.0228 -2.49943,-0.0314 -3.18645,-0.0193 -6.37294,-0.0314 -9.55945,-0.0292 -4.56058,-0.005 -9.12118,-0.0117 -13.68167,-0.0458 -5.52737,-0.056 -11.05471,-0.14208 -16.57859,-0.36267 -6.45347,-0.23249 -12.90569,-0.37433 -19.36305,-0.17905 -7.35035,0.13078 -14.69777,0.37856 -22.04821,0.49957 -7.69601,-0.0416 -15.39251,-0.10523 -23.08585,-0.33244 -5.87875,-0.17388 -11.75582,-0.36952 -17.63803,-0.24809 -2.74137,0.0136 -5.4829,0.0174 -8.22408,0.0538 0,0 3.11768,-2.32371 3.11768,-2.32371 z"
       inkscape:connector-curvature="0" />
    <path
       style="opacity:1;fill:#7b71ce;fill-opacity:0.75428569;stroke:none;stroke-width:0.1;stroke-miterlimit:4;stroke-dasharray:none;stroke-opacity:1"
       id="path4189"
       d="m 693.19738,603.71761 c -1.58896,-1.24457 -3.25616,-1.7926 -4.89817,-2.43828 -2.99554,-1.1994 -6.02237,-0.67529 -9.01652,0.21164 -4.20436,1.33434 -8.27258,4.30872 -12.25636,7.81911 -4.35145,4.08784 -8.50514,9.35967 -12.62084,14.72311 -4.6328,6.15916 -8.94295,13.65587 -13.20917,21.24575 -4.41464,7.86952 -8.46597,16.8226 -12.22344,26.55963 -3.54036,9.19623 -6.98733,18.61063 -10.51665,27.83372 -3.18625,8.53771 -6.54603,16.61807 -10.027,24.40021 -3.14717,7.4003 -6.79146,13.12837 -10.59059,18.18677 -3.8606,5.14041 -7.9931,8.78771 -12.21188,11.59452 -4.31243,2.95437 -8.74639,4.04522 -13.20375,3.79009 -4.40627,-0.48353 -8.59881,-3.86987 -12.67446,-7.81331 -4.26203,-4.45014 -8.38286,-9.72544 -12.43596,-15.24446 -0.70022,-0.96952 -1.40009,-1.94054 -2.10062,-2.90858 -2.08228,-2.87742 -4.15259,-5.80676 -6.23388,-8.68835 -1.86574,-2.58316 -2.84378,-3.85617 -1.51174,-2.10772 -4.07657,-5.5252 -7.67514,-12.77356 -11.20624,-20.19592 -3.66438,-7.5344 -6.96938,-16.02756 -10.33319,-24.35903 -3.29746,-8.51865 -7.25342,-14.99202 -11.32409,-20.94472 -5.03228,-7.7527 -10.46524,-13.43703 -16.07922,-17.93523 -4.99689,-3.86172 -10.13478,-6.29431 -15.29959,-8.23772 -5.20161,-2.15942 -10.46651,-2.89621 -15.72886,-3.3347 -5.59349,-0.66905 -11.17002,-0.0581 -16.71191,1.87143 -3.91797,1.71708 -7.77834,4.47624 -11.47258,8.1649 -2.13883,2.13563 -3.77464,4.2087 -5.85243,6.70208 -6.01684,7.27784 -11.5337,16.75646 -17.05108,26.09855 -4.80807,8.2799 -9.60718,16.59056 -14.41995,24.85348 -3.70251,6.65893 -7.58676,12.59819 -11.55321,18.21618 -3.73804,5.50932 -7.63689,10.29804 -11.62194,14.58507 -4.56478,4.66657 -9.35887,7.7363 -14.17912,10.2419 -3.58023,1.41347 -7.20226,2.61818 -10.83611,2.34971 -2.02288,-0.14945 -2.82055,-0.50628 -4.8078,-1.11331 -4.45697,-1.85979 -8.60323,-6.46996 -12.60876,-11.50525 -2.52012,-3.13534 -5.87306,-9.49516 -9.31783,-15.82 -3.89915,-7.29842 -7.62499,-15.14078 -11.3578,-22.95277 -3.87606,-8.81159 -7.82645,-17.37832 -12.01735,-25.24855 -5.28818,-9.90442 -11.01881,-18.28139 -17.06634,-24.94495 -5.7008,-6.36994 -11.81544,-9.64866 -17.91753,-12.58393 -7.18972,-3.49805 -14.42001,-6.436 -21.64269,-9.47055 -5.53211,-2.30152 -11.06996,-4.50371 -16.5982,-6.86663 -0.50024,-0.2153 -1.00051,-0.43058 -1.50074,-0.64589 0,0 2.45287,4.59466 2.45287,4.59466 l 0,0 c 0.48673,0.19017 0.97344,0.38034 1.46012,0.57051 5.48771,2.1823 10.97593,4.35796 16.45904,6.60757 7.22889,3.00015 14.46236,5.95226 21.65137,9.5105 6.10833,2.99794 12.22273,6.36965 17.92379,12.80228 3.97973,4.45032 1.26348,1.27205 5.14546,6.17482 0.0328,0.0415 -0.1193,-0.2135 -0.088,-0.16536 2.39194,3.6831 4.77117,7.43119 6.99927,11.71936 4.18894,7.82745 8.14043,16.34742 11.99279,25.18122 3.7313,7.81268 7.45127,15.66808 11.34267,22.98789 4.60458,8.47719 9.24192,16.86456 14.40366,23.18357 4.0261,4.99602 8.18832,9.59096 12.67013,11.29818 2.02548,0.57332 2.74466,0.89342 4.8057,0.99479 3.64876,0.17949 7.2816,-1.06177 10.87779,-2.45564 4.83745,-2.54955 9.6537,-5.62027 14.23449,-10.32712 3.99781,-4.29601 7.91143,-9.08292 11.65727,-14.62558 3.96314,-5.63381 7.82728,-11.65528 11.52006,-18.34594 4.79554,-8.27899 9.55716,-16.67767 14.35399,-24.95196 5.50593,-9.33257 11.01875,-18.77467 17.03359,-25.9985 2.10097,-2.49283 3.69021,-4.49077 5.85184,-6.61667 3.69302,-3.63201 7.54667,-6.34071 11.4591,-8.00319 5.53975,-1.86497 11.11309,-2.43296 16.70032,-1.73847 5.25756,0.46155 10.5157,1.2447 15.71204,3.40988 5.16156,1.96331 10.29406,4.44365 15.28254,8.35594 2.35246,1.91501 4.67219,3.91763 6.94552,6.36963 1.49185,1.60908 2.91308,3.61142 4.41437,5.16509 0.15553,0.16097 -0.26436,-0.52012 -0.39654,-0.78019 4.0753,5.9052 8.05028,12.29769 11.35756,20.77613 3.36608,8.32499 6.65323,16.8623 10.31525,24.40492 3.52733,7.44566 7.10743,14.77666 11.18714,20.31169 4.94231,7.17351 9.93168,14.13696 14.94073,21.01785 4.06507,5.49966 8.18974,10.79324 12.46939,15.18668 4.09832,3.90918 8.31428,7.24002 12.73985,7.61111 4.47642,0.17395 8.92914,-0.96136 13.25623,-3.95556 4.23269,-2.87261 8.38079,-6.54892 12.25716,-11.72481 3.80988,-5.1165 7.46358,-10.89125 10.61292,-18.3629 3.48123,-7.80448 6.84342,-15.90337 10.02675,-24.46889 3.51843,-9.24123 6.95165,-18.68043 10.49571,-27.86061 3.74678,-9.70092 7.77813,-18.64621 12.1907,-26.45049 4.2624,-7.56632 8.57099,-15.03438 13.21002,-21.12155 4.11879,-5.29948 8.26173,-10.57998 12.61281,-14.61009 3.98541,-3.45573 8.05439,-6.37632 12.25875,-7.61002 3.00335,-0.80589 6.03536,-1.23368 9.02978,0.073 1.66526,0.70116 3.34265,1.32854 4.95846,2.58649 0,0 -2.54884,-4.80832 -2.54884,-4.80832 z"
       inkscape:connector-curvature="0" />
    <path
       style="opacity:1;fill:#c766e8;fill-opacity:0.73142856;stroke:none;stroke-width:0.1;stroke-miterlimit:4;stroke-dasharray:none;stroke-opacity:1"
       id="path4189-3"
       d="m 229.87092,665.62398 c 1.58896,-0.45177 3.25616,-0.6507 4.89817,-0.88508 2.99554,-0.43538 6.02237,-0.24512 9.01652,0.0768 4.20436,0.48434 8.27258,1.56403 12.25636,2.83826 4.35145,1.48386 8.50514,3.39749 12.62084,5.34438 4.6328,2.23572 8.94295,4.95697 13.20917,7.71203 4.41464,2.85657 8.46597,6.10647 12.22344,9.64094 3.54036,3.33815 6.98733,6.7555 10.51665,10.10341 3.18625,3.09911 6.54603,6.03223 10.027,8.85707 3.14717,2.68626 6.79146,4.7655 10.59059,6.60166 3.8606,1.86593 7.9931,3.18986 12.21188,4.20871 4.31243,1.07242 8.74639,1.46839 13.20375,1.37578 4.40627,-0.17552 8.59881,-1.40474 12.67446,-2.83617 4.26203,-1.61537 8.38286,-3.53025 12.43596,-5.53361 0.70022,-0.35193 1.40009,-0.7044 2.10062,-1.0558 2.08228,-1.04447 4.15259,-2.10781 6.23388,-3.1538 1.86574,-0.93767 2.84378,-1.39976 1.51174,-0.76509 4.07657,-2.00559 7.67514,-4.63669 11.20624,-7.33095 3.66438,-2.73493 6.96938,-5.81787 10.33319,-8.84213 3.29746,-3.0922 7.25342,-5.44198 11.32409,-7.60276 5.03228,-2.81417 10.46524,-4.87754 16.07922,-6.51035 4.99689,-1.40177 10.13478,-2.28479 15.29959,-2.99022 5.20161,-0.78386 10.46651,-1.05131 15.72886,-1.21048 5.59349,-0.24286 11.17002,-0.0211 16.71191,0.67932 3.91797,0.62329 7.77834,1.62484 11.47258,2.9638 2.13883,0.77521 3.77464,1.52772 5.85243,2.4328 6.01684,2.6418 11.5337,6.08246 17.05108,9.47355 4.80807,3.00554 9.60718,6.02224 14.41995,9.02162 3.70251,2.41713 7.58676,4.57304 11.55321,6.61233 3.73804,1.99983 7.63689,3.73811 11.62194,5.29425 4.56478,1.69394 9.35887,2.80822 14.17912,3.71773 3.58023,0.51309 7.20226,0.95038 10.83611,0.85293 2.02288,-0.0543 2.82055,-0.18378 4.8078,-0.40412 4.45697,-0.67509 8.60323,-2.34854 12.60876,-4.17632 2.52012,-1.1381 5.87306,-3.44666 9.31783,-5.74253 3.89915,-2.64927 7.62499,-5.49597 11.3578,-8.33167 3.87606,-3.19853 7.82645,-6.30818 12.01735,-9.16502 5.28818,-3.59522 11.01881,-6.63599 17.06634,-9.05481 5.7008,-2.31224 11.81544,-3.50239 17.91753,-4.56787 7.18972,-1.26976 14.42001,-2.33621 21.64269,-3.43773 5.53211,-0.83543 11.06996,-1.63481 16.5982,-2.49253 0.50024,-0.0781 1.00051,-0.1563 1.50074,-0.23445 0,0 -2.45287,1.66782 -2.45287,1.66782 l 0,0 c -0.48673,0.069 -0.97344,0.13806 -1.46012,0.20709 -5.48771,0.79215 -10.97593,1.58191 -16.45904,2.3985 -7.22889,1.08903 -14.46236,2.16061 -21.65137,3.45223 -6.10833,1.08823 -12.22273,2.31213 -17.92379,4.64713 -3.97973,1.61543 -1.26348,0.46174 -5.14546,2.24141 -0.0328,0.0151 0.1193,-0.0775 0.088,-0.06 -2.39194,1.33694 -4.77117,2.69746 -6.99927,4.25403 -4.18894,2.8413 -8.14043,5.93398 -11.99279,9.14058 -3.7313,2.83594 -7.45127,5.68738 -11.34267,8.34442 -4.60458,3.07714 -9.24192,6.1217 -14.40366,8.41544 -4.0261,1.81352 -8.18832,3.48145 -12.67013,4.10116 -2.02548,0.20811 -2.74466,0.3243 -4.8057,0.36109 -3.64876,0.0652 -7.2816,-0.38541 -10.87779,-0.89138 -4.83745,-0.92545 -9.6537,-2.04011 -14.23449,-3.74865 -3.99781,-1.55943 -7.91143,-3.29703 -11.65727,-5.30897 -3.96314,-2.04503 -7.82728,-4.23077 -11.52006,-6.65943 -4.79554,-3.0052 -9.55716,-6.05386 -14.35399,-9.05736 -5.50593,-3.38765 -11.01875,-6.81505 -17.03359,-9.43724 -2.10097,-0.90488 -3.69021,-1.63011 -5.85184,-2.4018 -3.69302,-1.31839 -7.54667,-2.30163 -11.4591,-2.9051 -5.53975,-0.67696 -11.11309,-0.88314 -16.70032,-0.63105 -5.25756,0.16755 -10.5157,0.45182 -15.71204,1.23777 -5.16156,0.71266 -10.29406,1.613 -15.28254,3.03313 -2.35246,0.69513 -4.67219,1.42207 -6.94552,2.31213 -1.49185,0.58408 -2.91308,1.31091 -4.41437,1.87488 -0.15553,0.0584 0.26436,-0.1888 0.39654,-0.2832 -4.0753,2.14354 -8.05028,4.46396 -11.35756,7.54157 -3.36608,3.0219 -6.65323,6.12088 -10.31525,8.85879 -3.52733,2.70271 -7.10743,5.3638 -11.18714,7.37298 -4.94231,2.60392 -9.93168,5.1316 -14.94073,7.6293 -4.06507,1.99634 -8.18974,3.91786 -12.46939,5.51265 -4.09832,1.419 -8.31428,2.62806 -12.73985,2.76277 -4.47642,0.0631 -8.92914,-0.34897 -13.25623,-1.43584 -4.23269,-1.04274 -8.38079,-2.3772 -12.25716,-4.25601 -3.80988,-1.85725 -7.46358,-3.95343 -10.61292,-6.66558 -3.48123,-2.83297 -6.84342,-5.7728 -10.02675,-8.88201 -3.51843,-3.3545 -6.95165,-6.78084 -10.49571,-10.11318 -3.74678,-3.52136 -7.77813,-6.76842 -12.1907,-9.60131 -4.2624,-2.74652 -8.57099,-5.45736 -13.21002,-7.66695 -4.11879,-1.92367 -8.26173,-3.84045 -12.61281,-5.30335 -3.98541,-1.2544 -8.05439,-2.31456 -12.25875,-2.76238 -3.00335,-0.29253 -6.03536,-0.44781 -9.02978,0.0265 -1.66526,0.25452 -3.34265,0.48225 -4.95846,0.93888 0,0 2.54884,-1.74538 2.54884,-1.74538 z"
       inkscape:connector-curvature="0" />
    <g
       id="g4332"
       transform="matrix(0.39317702,0,0,0.61694255,105.88329,555.90637)"
       style="fill:#646464;fill-opacity:0.94117647">
      <path
         inkscape:connector-curvature="0"
         d="m 588.51892,389.63308 c 4.50539,-0.55855 9.24218,-0.0185 13.38471,1.92656 1.1033,0.51805 2.11483,1.21248 3.17225,1.81871 4.19914,3.48942 8.77655,8.75625 7.62013,14.7212 -0.19029,0.9815 -0.71989,1.86547 -1.07984,2.79821 -0.60163,0.75701 -1.10114,1.60788 -1.8049,2.27102 -0.73419,0.69181 -1.58762,1.25836 -2.46639,1.75373 -4.2782,2.41165 -9.91136,6.34031 -15.43879,6.36483 -0.7245,0.003 -1.43352,-0.21134 -2.15028,-0.31701 -1.89242,-0.60555 -2.60711,-1.52182 -3.24223,-3.2904 0,0 7.39006,-4.06049 7.39006,-4.06049 l 0,0 c 0.41668,1.52037 1.06962,2.09051 2.65984,2.52645 2.23752,0.19467 2.05695,0.34057 4.46461,-0.22593 0.96325,-0.22664 3.39948,-1.67361 2.84268,-0.85557 -0.95346,1.40079 -2.87719,1.80385 -4.20483,2.8568 -1.49144,1.18287 6.41857,-3.83303 4.44995,-3.57913 0.40769,-0.84599 0.98447,-1.62969 1.22305,-2.53798 1.47872,-5.62948 -3.14921,-10.75377 -7.11469,-13.96213 -5.54005,-3.00748 -10.16757,-4.26608 -16.46292,-3.09239 0,0 6.75759,-5.11648 6.75759,-5.11648 z"
         id="path4250"
         style="opacity:1;fill:#646464;fill-opacity:0.94117647;stroke:none;stroke-width:0.1;stroke-miterlimit:4;stroke-dasharray:none;stroke-opacity:1" />
      <path
         inkscape:connector-curvature="0"
         d="m 616.74462,394.84457 c 2.38222,-1.97004 1.08844,-2.08092 -0.94963,-0.84578 2.01297,-1.09376 3.92384,-2.40103 6.03891,-3.28129 0.4986,-0.20751 -0.78299,0.75846 -1.07252,1.21435 -0.31226,0.49166 -0.5775,1.02894 -0.71209,1.59561 -0.56311,2.37082 0.52314,4.35736 1.54731,6.38877 3.30634,5.03087 8.63324,7.4531 14.23429,9.00801 2.51216,0.74065 5.0777,0.6256 7.63738,0.31114 0,0 -6.76313,5.01336 -6.76313,5.01336 l 0,0 c -2.59882,0.18016 -5.19261,0.14238 -7.70826,-0.64904 -5.74716,-1.74801 -11.17744,-4.40719 -14.59555,-9.57733 -4.85386,-9.33843 -0.67218,-10.18241 8.00208,-15.25578 0.43734,-0.13236 0.85689,-0.3565 1.31201,-0.39706 2.23701,-0.19939 2.51656,2.29311 0.90701,3.34215 0,0 -7.87781,3.13289 -7.87781,3.13289 z"
         id="path4252"
         style="opacity:1;fill:#646464;fill-opacity:0.94117647;stroke:none;stroke-width:0.1;stroke-miterlimit:4;stroke-dasharray:none;stroke-opacity:1" />
      <path
         inkscape:connector-curvature="0"
         d="m 655.19717,414.32444 c -0.1182,4.85021 -0.10304,9.70273 -0.048,14.55371 0,0 -7.44124,3.7915 -7.44124,3.7915 l 0,0 c 0.0543,-4.83467 0.0717,-9.67094 -0.048,-14.50482 0,0 7.5372,-3.84039 7.5372,-3.84039 z"
         id="path4254"
         style="opacity:1;fill:#646464;fill-opacity:0.94117647;stroke:none;stroke-width:0.1;stroke-miterlimit:4;stroke-dasharray:none;stroke-opacity:1" />
    </g>
    <g
       id="g4337"
       transform="matrix(0.41340077,0,0,0.57234214,227.74793,575.61224)"
       style="fill:#646464;fill-opacity:0.94117647">
      <path
         inkscape:connector-curvature="0"
         d="m 819.94749,395.34737 c 5.04276,-0.2445 8.32689,3.35856 10.95408,7.18406 2.82202,5.47248 4.28542,9.86072 1.32937,15.60217 -2.61481,2.85962 -9.77921,8.59463 -13.66696,6.23995 -1.22066,-0.73931 -1.47846,-1.623 -2.13011,-2.82231 -1.76435,-5.82036 2.29968,-9.92108 6.49277,-13.29932 6.02374,-4.08784 12.53982,-7.37659 18.88517,-10.92723 0.89002,-0.49802 3.5386,-2.02976 2.648,-1.53279 -1.63243,0.91091 -3.24908,1.84981 -4.87363,2.77471 1.27429,-0.76969 2.53893,-1.55544 3.78907,-2.36379 0.26764,-0.17306 0.67281,-0.78767 0.81384,-0.50186 0.12903,0.2615 0.0869,0.57669 0.13031,0.86503 -3.429,1.69451 3.22341,-2.01289 4.95485,-2.78021 0.73851,-0.32728 -1.32259,0.93293 -1.93027,1.46512 -0.73468,0.64342 -1.43816,1.32613 -2.08864,2.05455 -2.14467,2.40162 -2.25808,2.90758 -3.93028,5.71422 -1.70877,4.01473 -5.05775,10.06395 -2.01361,14.33745 0.41349,0.58047 1.0509,0.96294 1.57634,1.44441 5.24541,2.14572 11.04368,1.08293 16.2325,-0.7031 0,0 -6.5744,5.09873 -6.5744,5.09873 l 0,0 c -5.41666,1.6453 -11.48181,2.57036 -16.74244,-0.0328 -0.58097,-0.57708 -1.28244,-1.05409 -1.74291,-1.73123 -3.11413,-4.5795 -0.0225,-10.72171 1.79629,-15.08762 0.59044,-1.05995 1.11477,-2.15954 1.77133,-3.17985 3.43984,-5.34565 9.53417,-10.02104 15.57149,-11.64605 0.28034,0.27765 0.6515,0.48689 0.84102,0.83296 0.17759,0.32427 -0.47461,0.58276 -0.7851,0.78348 -1.29688,0.83838 -2.61172,1.64867 -3.93244,2.44882 -3.96352,2.30508 -7.89361,4.66972 -11.90604,6.88859 -0.96054,0.53118 -3.75818,2.24523 -2.89831,1.56301 1.20271,-0.95423 2.69709,-1.48459 3.93832,-2.38816 1.85696,-1.35178 -7.79633,4.66446 -5.90324,3.55417 -3.94903,2.97141 -8.33143,6.69378 -6.85341,12.17418 0.73185,1.31699 1.34405,2.54219 3.09436,2.46254 0.54111,-0.0246 2.00897,-0.70017 1.58352,-0.36491 -1.12158,0.88379 -8.57176,5.58477 -3.7615,2.04998 0.38042,-0.58987 0.86121,-1.126 1.14125,-1.76961 1.89839,-4.36313 0.0977,-9.13265 -1.975,-13.03462 -2.54059,-3.62857 -5.76513,-6.98776 -10.59318,-6.25624 0,0 6.75759,-5.11647 6.75759,-5.11647 z"
         id="path4256"
         style="opacity:1;fill:#646464;fill-opacity:0.94117647;stroke:none;stroke-width:0.1;stroke-miterlimit:4;stroke-dasharray:none;stroke-opacity:1" />
      <path
         inkscape:connector-curvature="0"
         d="m 856.09172,426.36312 c -1.35228,-6.77905 2.10956,-6.22195 8.84572,-10.12559 3.14662,-0.36513 4.48628,2.55153 5.27976,5.09551 0.5318,2.53956 -0.25722,4.67287 -1.80288,6.65314 0.0699,0.66177 -1.77301,1.27355 -1.08061,0.5572 0.38999,-0.40347 1.12181,-0.0618 1.68278,-0.0475 3.75701,-0.10456 7.46277,0.11635 11.17449,0.68923 0,0 -6.87758,4.83531 -6.87758,4.83531 l 0,0 c -3.69943,-0.58889 -7.40209,-0.68452 -11.14448,-0.58674 -1.73643,-0.0784 -3.70241,-0.52222 -1.55798,-2.14336 1.60228,-1.71262 2.59125,-3.48169 2.22063,-5.91473 -0.64709,-2.18033 -1.74003,-4.81995 -4.49119,-3.85293 2.08341,-1.25238 4.15842,-2.51884 6.25023,-3.75714 0.50993,-0.30186 -1.10223,0.67281 -1.27385,1.23999 -0.31307,1.03467 0.0738,2.35164 0.24975,3.36123 0,0 -7.47479,3.99637 -7.47479,3.99637 z"
         id="path4258"
         style="opacity:1;fill:#646464;fill-opacity:0.94117647;stroke:none;stroke-width:0.1;stroke-miterlimit:4;stroke-dasharray:none;stroke-opacity:1" />
    </g>
    <g
       id="g4328"
       style="fill:#646464;fill-opacity:0.94117647"
       transform="matrix(0.75127999,0,0,0.83704361,41.51279,121.63651)">
      <path
         inkscape:connector-curvature="0"
         d="m 82.478002,645.6914 c 0.659872,7.20837 0.8746,14.448 1.331938,21.67253 0.732868,7.80469 1.209752,16.23148 5.337642,23.16117 0.640706,1.07558 1.500688,2.00436 2.251032,3.00655 6.242779,5.87429 12.948446,4.89406 20.474036,2.3882 1.11619,-0.56822 4.42807,-2.33984 3.34859,-1.70464 -1.24108,0.73028 -2.4531,2.39814 -3.83415,1.99035 -1.16691,-0.34455 1.95213,-1.45952 2.84961,-2.28106 2.43842,-2.23209 4.19608,-4.876 5.90473,-7.66798 1.18349,-2.39226 2.33379,-4.80065 3.5013,-7.20071 0,0 7.67627,-3.47118 7.67627,-3.47118 l 0,0 c -1.25605,2.42387 -2.5036,4.85338 -3.64449,7.33425 -5.53177,9.34801 -11.84455,13.47615 -22.24198,17.98919 -7.906384,2.38518 -14.724924,3.00607 -21.047884,-3.22225 -0.764935,-1.05533 -1.63993,-2.03905 -2.294804,-3.16599 -4.105501,-7.06491 -4.614757,-15.54672 -5.407701,-23.4635 -0.509882,-7.13593 -0.774795,-14.30348 -1.675522,-21.40132 0,0 7.471383,-3.96361 7.471383,-3.96361 z"
         id="path4260"
         style="opacity:1;fill:#646464;fill-opacity:0.94117647;stroke:none;stroke-width:0.1;stroke-miterlimit:4;stroke-dasharray:none;stroke-opacity:1" />
      <path
         inkscape:connector-curvature="0"
         d="m 124.5417,676.63569 c -1.26446,-2.95393 -2.13757,-5.52098 -0.9377,-8.62766 2.74921,-3.59272 9.60529,-9.3381 13.51649,-5.49926 0.46748,0.45882 0.76205,1.06558 1.14308,1.59838 1.7728,3.98101 2.60658,8.82504 0.6914,12.94041 -0.35062,0.7534 -0.89653,1.39943 -1.3448,2.09915 -8.29846,7.21196 -13.56397,8.73894 -18.67015,-0.13964 -2.30099,-5.57301 3.2e-4,-9.09933 4.16332,-12.77119 5.55154,-4.21384 11.73737,-7.72046 18.62157,-8.94095 1.24044,-0.39404 2.51002,-0.65314 3.67753,-1.24955 0.39925,-0.20395 1.5522,-0.898 1.16021,-0.6804 -6.32867,3.51308 -7.73857,4.85078 -4.65875,2.24022 3.13793,-3.45242 4.28544,-7.92634 5.12749,-12.38876 0.23503,-1.62087 0.35667,-1.88076 0.30162,-3.4082 -0.0134,-0.37204 -0.026,-0.74961 -0.11638,-1.11076 -0.21542,-0.86106 -0.57063,-0.39354 -0.55784,-0.40008 2.29786,-1.17527 4.60332,-2.33561 6.90498,-3.50342 -2.32699,2.67121 -3.48944,6.18952 -4.45167,9.54659 -0.98164,3.43161 -0.4487,4.41789 3.13762,4.54168 3.59133,-0.12787 7.15605,-1.79932 10.77155,-1.52152 0.62657,0.0481 1.22628,0.27552 1.83942,0.41328 4.39955,1.97316 5.2222,5.12338 3.69167,9.45778 -3.35693,4.59936 -10.50926,10.10301 -16.32991,8.265 -0.35177,-0.26014 -0.79483,-0.42891 -1.0553,-0.78044 -2.1475,-2.89809 1.70387,-7.50668 3.13892,-9.73582 3.60116,-4.88259 7.19522,-9.7703 9.72895,-15.30416 1.53495,-3.49825 2.05662,-7.05894 1.61603,-10.81788 -0.10702,-0.34956 -0.19165,-0.70678 -0.32104,-1.04869 -0.002,-0.004 -0.42986,-1.12708 -0.72505,-1.177 -0.13133,-0.0222 -0.42719,0.31427 -0.30839,0.25405 7.07561,-3.58715 8.27955,-5.80378 6.3923,-2.7959 -1.02763,2.5638 -1.22499,5.10535 -0.0531,7.61848 2.72956,2.88381 7.89192,2.98979 11.66737,3.83645 4.16057,0.92042 9.26093,1.60548 12.15351,5.1596 0.42349,0.52034 0.65641,1.17026 0.98461,1.75539 0.0511,0.67704 0.25927,1.36049 0.15322,2.03111 -0.88201,5.57737 -12.2397,10.47519 -15.45126,12.31516 0,0 6.49395,-5.23525 6.49395,-5.23525 l 0,0 c -1.75762,1.03687 -3.50442,2.09229 -5.27285,3.11061 -0.7162,0.4124 1.43087,-0.83 2.1157,-1.29263 2.38705,-1.61255 4.91206,-3.62278 4.70506,-6.76412 -0.26823,-0.51118 -0.4403,-1.08579 -0.80468,-1.53352 -2.7927,-3.43151 -7.89174,-3.89654 -11.86105,-4.83672 -4.19087,-0.88736 -9.2416,-0.90588 -12.20955,-4.39587 -1.30413,-2.72186 -1.23783,-5.39845 -0.32242,-8.26483 1.90447,-5.36277 9.09027,-8.71655 10.12165,-2.64739 0.46488,3.9111 0.0292,7.62184 -1.54378,11.28287 -2.45059,5.60896 -6.05558,10.54045 -9.70066,15.4305 -0.83854,1.29117 -4.94786,6.7807 -3.58168,8.51139 0.21423,0.27138 0.58833,0.36336 0.88249,0.54504 1.18446,0.23164 1.35691,0.38483 2.63775,0.0746 0.57374,-0.13895 2.15011,-0.93959 1.66518,-0.60294 -10.5951,7.35532 -4.31321,2.60388 -2.5033,0.54914 1.74938,-3.7954 1.16542,-6.58412 -2.97112,-8.16989 -4.24568,-0.65112 -8.33316,1.0664 -12.57834,1.18726 -3.83419,-0.52978 -4.99498,-2.00712 -3.85489,-5.82264 0.94758,-3.48545 2.20358,-6.90153 4.11985,-9.9828 2.6841,-1.46856 5.27416,-3.1239 8.0523,-4.40569 0.21487,-0.0991 0.41967,0.24308 0.56501,0.42982 1.15298,1.48153 0.35389,3.98096 0.21316,5.60236 -0.83135,4.56709 -1.92294,9.12245 -4.84762,12.85605 -3.97526,3.90153 -9.23383,6.62503 -14.63618,7.92566 -1.73868,0.36091 -3.40872,0.79262 -5.06401,1.45282 -0.712,0.28398 -2.72967,1.36712 -2.10847,0.918 0.90623,-0.65519 8.53179,-5.21159 2.9484,-1.60053 -4.04487,3.1727 -6.77002,6.43757 -4.6852,11.73423 1.20734,2.08008 2.3814,4.15041 4.82018,4.99551 0.68568,0.2376 2.58708,-0.27583 2.15524,0.30738 -1.21339,1.63869 -3.35714,2.31651 -4.99622,3.52937 -0.60695,0.44913 1.26522,-0.82444 1.89782,-1.23666 0.48483,-0.63406 1.06712,-1.2043 1.4545,-1.90218 2.10278,-3.78826 1.30936,-8.43126 -0.39114,-12.17954 -0.78103,-1.01443 -0.89561,-1.5522 -2.17827,-1.87293 -0.42783,-0.10697 -1.66174,0.24272 -1.32244,-0.039 1.80259,-1.49664 3.94345,-2.53115 5.92452,-3.78201 0.41293,-0.26072 -0.84346,0.50025 -1.21981,0.81145 -0.36898,0.3051 -0.66925,0.68486 -1.00388,1.02728 -1.56893,2.75873 -0.57353,5.20258 0.65925,7.91457 0,0 -7.37593,4.19974 -7.37593,4.19974 z"
         id="path4262"
         style="opacity:1;fill:#646464;fill-opacity:0.94117647;stroke:none;stroke-width:0.1;stroke-miterlimit:4;stroke-dasharray:none;stroke-opacity:1" />
    </g>
    <g
       id="g4304"
       style="fill:#65dde8;fill-opacity:1"
       transform="matrix(0.65439776,0,0,0.59400156,211.9121,217.184)">
      <path
         inkscape:connector-curvature="0"
         d="m 750.50878,587.71795 c 0.37133,-7.96447 -0.0444,-15.92349 -0.43662,-23.87757 -0.0698,-3.60874 -0.63319,-7.2133 -0.46577,-10.8289 0.003,-0.0592 0.13604,-2.74517 0.70389,-3.08572 2.64955,-1.58902 5.51939,-2.7779 8.27908,-4.16685 4.38001,3.68101 7.09302,8.98473 9.99851,13.83315 0.26224,0.44231 1.56469,2.7231 2.06254,3.3048 1.77496,2.07389 11.65865,-1.73806 -6.51173,3.83361 -0.45998,0.14104 0.34435,-0.90577 0.41992,-1.38091 0.14686,-0.92333 0.16276,-1.86277 0.24413,-2.79415 0.35257,-8.05753 0.27476,-16.12737 0.15429,-24.18949 -0.16824,-5.23871 -0.30079,-5.01668 7.56068,-8.06937 0.63288,-0.24575 3.22318,5.83333 3.41101,6.26182 3.40819,8.39105 6.99277,16.71353 10.30329,25.14367 2.03286,5.14705 4.04773,10.29752 6.46278,15.27985 0.3082,0.60518 0.66977,1.37537 1.03075,1.90228 -0.0586,-0.17912 -0.27601,-0.37779 -0.17575,-0.53738 0.084,-0.13377 0.31096,0.0601 0.46854,0.0713 0.36583,0.026 0.73712,0.0506 1.10026,-8e-4 0.78454,-0.11094 1.29821,-0.37319 2.04598,-0.66735 4.25462,-2.30025 -2.90108,1.81302 -4.47643,2.45809 -0.62948,0.25776 1.03921,-0.88373 1.49658,-1.3872 1.74158,-1.91712 2.85596,-4.10086 3.94118,-6.42173 1.21534,-3.63579 2.61968,-7.62767 1.62028,-11.47422 -0.16491,-0.17538 -0.25963,-0.47433 -0.49472,-0.52615 -0.21763,-0.048 -0.80271,0.38729 -0.6054,0.28368 2.17593,-1.14266 4.25762,-2.49406 6.54184,-3.4011 0.43044,-0.17093 -0.60723,0.7117 -0.81343,1.1264 -0.85793,1.72539 -0.69398,2.1798 -0.85201,4.13372 0.28177,6.06688 3.57524,9.81909 8.67338,12.62794 0.62268,0.13806 1.23024,0.41017 1.86803,0.41418 1.85727,0.0117 10.26594,-5.14099 -4.60099,2.89058 0,0 7.84486,-3.04664 7.84486,-3.04664 l 0,0 c -5.71155,3.23223 -6.95985,6.0717 -12.0729,4.26626 -5.20867,-3.0883 -8.64936,-7.15191 -9.13757,-13.41672 0.0545,-2.30911 -0.13686,-2.36446 0.59175,-4.44991 1.33878,-3.83194 7.727,-8.81254 10.47374,-4.92475 1.07501,4.04297 -0.2956,8.18242 -1.50117,12.05014 -3.22219,7.44559 -6.8713,10.70097 -15.15275,13.97712 -0.18372,0.0544 -3.42878,0.80424 -3.65449,0.73887 -0.20029,-0.058 -0.32375,-0.26285 -0.48563,-0.39428 -0.39281,-0.68712 -0.66855,-1.43555 -1.00699,-2.14929 -2.2156,-5.10391 -4.19636,-10.298 -6.17563,-15.49697 -3.2496,-8.42916 -6.84516,-16.73068 -10.4286,-25.02158 -0.63704,-1.35229 -1.46536,-3.32538 -2.38499,-4.60618 -0.13651,-0.19013 -0.73894,-0.28891 -0.55364,-0.43189 8.89028,-6.8598 6.40618,-5.85658 6.46852,-0.941 -0.0567,8.07315 -0.0284,16.1466 -0.0998,24.21956 -0.0281,0.93954 -0.0422,1.87961 -0.0844,2.81862 -0.0266,0.59341 0.35117,1.41869 -0.12197,1.77784 -8.07134,6.12687 -7.4462,5.80406 -10.54278,0.28443 -2.39229,-4.1396 -4.76188,-9.00457 -8.40136,-12.22525 -0.38022,-0.33647 -0.87054,-0.52275 -1.30582,-0.78412 2.10224,-1.40355 4.14319,-2.90354 6.30672,-4.21064 0.30597,-0.18485 -0.56348,0.48547 -0.69256,0.81884 -0.23859,0.6162 -0.31473,1.28823 -0.37796,1.94597 -0.34842,3.62437 0.25379,7.26692 0.23795,10.88985 0.37238,7.90031 0.81114,15.79578 0.85724,23.70665 0,0 -7.55387,3.84889 -7.55387,3.84889 z"
         id="path4264"
         style="opacity:1;fill:#65dde8;fill-opacity:1;stroke:none;stroke-width:0.1;stroke-miterlimit:4;stroke-dasharray:none;stroke-opacity:1" />
      <path
         inkscape:connector-curvature="0"
         d="m 819.75389,552.58021 c 1.48303,3.92516 2.93901,7.86114 4.19582,11.8662 1.31798,3.68977 2.2841,2.36933 -6.43828,4.86581 -0.50035,0.14321 0.0992,-1.03642 0.1281,-1.55606 0.0382,-0.68682 0.0486,-1.37491 0.0729,-2.06236 0.74646,-8.72313 -6.1e-4,-6.5654 9.51001,-11.71318 2.47827,1.13372 3.94768,3.4643 5.18101,5.78314 0.076,0.11741 0.79661,1.37924 1.14974,1.47933 0.13186,0.0374 0.40527,-0.35948 0.28234,-0.2989 -2.29642,1.13166 -4.43471,2.60528 -6.8247,3.52294 -0.39189,0.15047 0.40823,-0.73544 0.57175,-1.12206 0.2362,-0.55845 0.41687,-1.1388 0.6253,-1.70819 0.77028,-1.75722 1.73428,-7.24309 3.32296,-8.31728 2.66509,-1.80202 5.52114,-3.30409 8.28172,-4.95614 2.84014,-0.11177 5.49758,1.27607 8.14635,2.1707 1.8098,0.70129 3.75681,0.71928 5.66919,0.77354 0.36888,0.0798 0.73775,0.15951 1.10663,0.23927 0,0 -6.92563,4.8459 -6.92563,4.8459 l 0,0 c -0.34315,-0.0483 -0.68629,-0.0965 -1.02944,-0.1448 -1.97999,-0.0776 -3.96749,-0.1891 -5.81582,-0.98117 -2.45022,-0.87775 -5.0746,-2.33278 -7.70689,-1.60601 2.00198,-1.22446 3.91763,-2.6028 6.00595,-3.67338 0.40399,-0.20711 -0.62547,0.66434 -0.87553,1.04325 -1.38301,2.09572 -1.80288,4.72054 -2.59727,7.05477 -0.18614,0.57481 -0.37459,1.14888 -0.55841,1.72444 -0.14177,0.44392 -0.0438,1.05668 -0.41835,1.33396 -5.69414,4.21547 -7.04002,7.21681 -9.72624,2.80324 -0.9741,-1.89676 -2.31695,-4.46536 -4.62732,-4.84229 2.17073,-1.34941 4.32715,-2.72209 6.51218,-4.04822 0.23566,-0.14303 -0.50385,0.27054 -0.661,0.49704 -0.21847,0.31487 -0.3249,0.69834 -0.42506,1.06826 -0.46468,1.71608 -0.48551,3.55007 -0.7293,5.29876 -0.004,0.53947 -0.0199,3.63025 -0.0438,3.65289 -6.11279,5.7727 -7.02131,7.86508 -8.50216,2.88811 -1.16615,-4.00143 -2.58339,-7.93352 -4.25242,-11.75156 0,0 7.39569,-4.12995 7.39569,-4.12995 z"
         id="path4266"
         style="opacity:1;fill:#65dde8;fill-opacity:1;stroke:none;stroke-width:0.1;stroke-miterlimit:4;stroke-dasharray:none;stroke-opacity:1" />
      <path
         inkscape:connector-curvature="0"
         d="m 849.08021,549.14652 c 0.56899,-6.75737 5.59189,-7.81606 11.38442,-11.01146 3.17421,-0.01 5.37677,1.96366 6.37513,4.84433 0.0524,1.3233 0.23301,1.71935 -0.43053,2.97878 -1.91821,3.64086 -11.0368,7.69675 -12.79415,8.68839 -2.87428,1.32479 -5.47744,1.30591 -4.27206,-2.6124 3.46447,-6.21785 9.83692,-8.71586 15.86463,-12.03375 4.26832,-1.24123 7.97488,1.05633 11.39756,3.39039 1.06954,0.78521 2.09321,1.63212 3.05525,2.54588 0.17131,0.16271 0.31292,0.35908 0.50304,0.49937 0.0731,0.0539 0.34557,0.0264 0.26421,0.0668 -2.36844,1.17619 -4.78827,2.24591 -7.1824,3.36887 0.51891,-3.95005 0.20314,-7.95158 0.43318,-11.92371 1.11912,-8.26177 6.62991,-9.14186 13.79127,-12.78903 1.31047,-0.22083 2.62487,-0.17304 3.94098,-0.0807 0,0 -6.87239,4.93595 -6.87239,4.93595 l 0,0 c -1.24743,-0.0477 -2.48676,-0.0501 -3.71085,0.25579 1.85158,-1.19606 3.7456,-2.32885 5.55474,-3.5882 0.48841,-0.33999 -1.09441,0.48532 -1.58375,0.82397 -2.24068,1.55072 -3.34227,4.10476 -3.6953,6.71718 -0.26735,4.00296 0.005,8.0074 -0.19312,12.01365 -9.76485,6.29079 -5.60591,6.10724 -11.34644,1.65663 -3.32681,-2.22693 -6.84231,-4.23859 -10.89151,-2.70156 11.66659,-7.18484 0.28919,-0.80775 -1.67466,3.31313 -1.89851,3.39848 1.58539,1.5015 3.15227,0.90974 -11.85963,7.10179 -3.1193,2.41525 -1.37101,0.0757 0.75627,-1.01203 0.61286,-1.29805 0.67497,-2.45052 -0.75962,-2.54388 -2.88153,-4.22953 -5.62402,-3.69784 2.01852,-1.24071 4.01818,-2.51263 6.05556,-3.72212 0.37744,-0.22407 -0.74603,0.47063 -1.07256,0.76398 -1.4151,1.27128 -2.03045,3.06381 -2.17859,4.91392 0,0 -7.55387,3.84888 -7.55387,3.84888 z"
         id="path4268"
         style="opacity:1;fill:#65dde8;fill-opacity:1;stroke:none;stroke-width:0.1;stroke-miterlimit:4;stroke-dasharray:none;stroke-opacity:1" />
      <path
         inkscape:connector-curvature="0"
         d="m 895.58658,529.45382 c 0.85755,1.42467 1.80959,2.76662 2.84181,4.06736 0,0 -7.20094,4.29672 -7.20094,4.29672 l 0,0 c -1.02838,-1.31374 -1.96789,-2.67604 -2.9316,-4.0374 0,0 7.29073,-4.32668 7.29073,-4.32668 z"
         id="path4270"
         style="opacity:1;fill:#65dde8;fill-opacity:1;stroke:none;stroke-width:0.1;stroke-miterlimit:4;stroke-dasharray:none;stroke-opacity:1" />
      <path
         inkscape:connector-curvature="0"
         d="m 908.57335,513.42522 c -3.77046,0.42933 -13.16598,6.35341 -0.008,-1.16901 -1.15617,0.99081 1.03935,1.08599 1.602,1.21491 3.60129,0.8252 0.25645,0.12215 4.10252,0.90095 3.76417,0.81557 7.58738,1.64501 10.53711,4.25821 2.47821,2.97513 0.0879,5.51965 -2.17879,7.66456 -4.90234,3.41034 -10.066,6.67947 -15.8307,8.37452 -0.15123,0.0662 -0.43516,0.36272 -0.45368,0.19867 -0.0629,-0.55748 -0.0226,-1.19147 0.28893,-1.65808 0.062,-0.093 3.23124,-2.0056 3.27214,-2.03233 1.16167,-0.7594 3.13013,-2.20506 4.2261,-2.99786 4.20958,-3.03109 7.96999,-6.61905 11.52526,-10.38169 1.69712,-1.9238 3.18411,-4.24225 3.22259,-6.8811 -0.10853,-0.25351 -0.22527,-0.9301 -0.7462,-0.77954 -0.2131,0.0616 -0.6811,0.55683 -0.48215,0.45871 2.188,-1.07906 4.19908,-2.53242 6.47395,-3.4137 0.46247,-0.17916 -0.60751,0.79043 -0.83714,1.23003 -0.28853,0.55233 -0.47266,1.15319 -0.70899,1.72979 -0.60498,2.97841 -2.1598,6.64618 -0.88115,9.64843 2.21331,-1.96865 -1.33691,1.22476 -6.64373,3.24663 -0.39486,0.15044 0.46277,-0.70876 0.6581,-1.08346 0.26042,-0.49957 0.49232,-1.01429 0.707,-1.53516 0.58146,-1.41078 0.79503,-2.19042 1.25085,-3.63301 1.84652,-6.8664 0.84311,-4.59407 9.59007,-9.40755 1.73807,0.68666 3.00039,2.0516 4.52436,3.07686 1.41611,0.86582 2.66494,1.95265 4.16027,2.68551 1.06209,0.44625 0.54776,0.24366 1.54088,0.61313 0,0 -7.04976,4.72588 -7.04976,4.72588 l 0,0 c -1.00566,-0.42353 -0.48239,-0.19248 -1.56737,-0.69865 -1.48279,-0.81054 -2.82228,-1.8451 -4.23827,-2.76531 -1.27744,-0.91859 -2.47962,-2.37906 -4.13267,-2.4708 2.25722,-1.35221 4.51443,-2.70442 6.77164,-4.05664 -0.57615,0.3198 -0.69341,0.26393 -0.96604,0.92859 -0.49486,1.20642 -0.54161,2.60039 -1.06903,3.79883 -1.15277,3.7392 -4.47009,15.03775 -10.93219,10.71344 -1.30257,-3.27199 0.082,-6.97429 0.69584,-10.25634 0.0906,-0.27276 0.89074,-2.96086 1.31597,-3.27036 1.83044,-1.33229 8.11322,-8.0527 10.10083,-3.35053 0.17274,2.82415 -1.28629,5.42573 -3.0598,7.53274 -3.585,3.78495 -7.31483,7.4598 -11.5288,10.5486 -0.89092,0.65099 -6.44269,4.89038 -7.3146,5.0008 -0.51031,0.0646 -1.02207,-0.23568 -1.45549,-0.51269 -0.13081,-0.0836 0.29773,-0.0881 0.44659,-0.13213 0.78726,-0.2481 1.14654,-0.34988 1.96098,-0.66425 0.47176,-0.18209 1.82387,-0.85658 1.40389,-0.57492 -10.92197,7.32469 -4.53527,2.48233 -1.96959,1.20792 1.86156,-1.65102 4.90278,-3.75813 2.74954,-6.37279 -2.86853,-2.46382 -6.60175,-3.1841 -10.21156,-3.95316 -2.01117,-0.4085 -7.75324,-0.59792 -6.75527,-3.81711 4.55187,-2.65482 9.27881,-6.30719 14.75276,-6.87272 0,0 -6.85877,4.98318 -6.85877,4.98318 z"
         id="path4272"
         style="opacity:1;fill:#65dde8;fill-opacity:1;stroke:none;stroke-width:0.1;stroke-miterlimit:4;stroke-dasharray:none;stroke-opacity:1" />
      <path
         inkscape:connector-curvature="0"
         d="m 944.03961,454.00878 c 2.76943,7.80048 6.30997,15.30149 9.74524,22.82382 4.69148,9.90693 9.99159,19.50559 16.13482,28.5841 2.77978,3.67612 4.5022,2.55447 -5.65066,5.72331 -0.4311,0.13456 -0.31282,-0.84812 -0.49881,-1.25965 -0.65878,-1.45766 -1.39619,-2.87849 -2.08975,-4.31992 -0.90749,-1.98234 -1.745,-3.99515 -2.57821,-6.00939 0,0 7.31313,-4.08252 7.31313,-4.08252 l 0,0 c 0.77386,2.01926 1.55684,4.03623 2.47675,5.99503 0.91441,1.84882 3.00407,5.7385 2.9579,5.78104 -6.85438,6.31491 -6.29292,6.42692 -9.01808,2.31495 -5.83254,-9.31486 -11.08356,-18.97177 -15.91117,-28.84508 -3.52663,-7.47785 -7.12844,-14.92771 -10.27685,-22.57574 0,0 7.39569,-4.12995 7.39569,-4.12995 z"
         id="path4274"
         style="opacity:1;fill:#65dde8;fill-opacity:1;stroke:none;stroke-width:0.1;stroke-miterlimit:4;stroke-dasharray:none;stroke-opacity:1" />
      <path
         inkscape:connector-curvature="0"
         d="m 966.03817,477.41091 c -4.9638,6.45115 -10.2335,12.6583 -15.95965,18.4444 -3.03481,3.10032 -6.38301,5.85743 -9.8229,8.48936 0,0 -7.73739,3.07675 -7.73739,3.07675 l 0,0 c 3.54841,-2.60642 7.00896,-5.3427 10.111,-8.48009 5.68878,-5.64076 10.87361,-11.73866 15.67983,-18.14868 0,0 7.72911,-3.38174 7.72911,-3.38174 z"
         id="path4276"
         style="opacity:1;fill:#65dde8;fill-opacity:1;stroke:none;stroke-width:0.1;stroke-miterlimit:4;stroke-dasharray:none;stroke-opacity:1" />
      <path
         inkscape:connector-curvature="0"
         d="m 983.90657,481.40568 c 0.62454,3.31211 1.77892,6.47237 3.0758,9.57107 0.17476,1.86821 0.47706,0.12647 0.35552,0.18013 -2.46223,1.08692 -4.64179,2.85292 -7.22757,3.59973 -0.46918,0.1355 -0.12292,-0.96998 -0.22255,-1.44806 -0.33308,-1.59823 -0.87252,-3.36623 -1.31342,-4.91621 -1.86575,-5.52689 -4.084,-10.90776 -5.53244,-16.56947 -0.56471,-2.26404 -0.94289,-4.57433 -1.15054,-6.898 -0.0178,-0.21517 -0.0294,-0.43074 -0.0421,-0.64624 0,0 7.64876,-3.84225 7.64876,-3.84225 l 0,0 c -0.024,0.19159 -0.0604,0.38119 -0.0386,0.57753 0.0576,2.30831 0.41161,4.60097 0.90066,6.85463 1.3464,5.68229 3.49835,11.0756 5.45979,16.56352 0.10578,0.3391 1.94797,6.37385 1.84574,6.47579 -3.35184,3.34245 -6.26583,7.93381 -8.05192,4.18485 -1.22549,-3.18684 -2.36794,-6.40239 -3.1785,-9.7234 0,0 7.47138,-3.96362 7.47138,-3.96362 z"
         id="path4278"
         style="opacity:1;fill:#65dde8;fill-opacity:1;stroke:none;stroke-width:0.1;stroke-miterlimit:4;stroke-dasharray:none;stroke-opacity:1" />
      <path
         inkscape:connector-curvature="0"
         d="m 996.38195,479.8678 c -1.30948,2.41214 -1.20097,4.79171 0.66783,6.80671 2.07982,1.45561 4.58892,1.97207 6.98122,1.10604 -2.0799,1.11814 -4.06024,2.44562 -6.23981,3.35441 -0.43979,0.18337 0.63958,-0.71401 0.88574,-1.12199 1.20042,-1.9895 1.31114,-4.22662 1.28136,-6.47367 -0.0801,-1.36271 -0.30177,-3.15234 -0.64699,-4.29211 2.475,-1.18766 4.8969,-2.49276 7.4249,-3.56296 1.213,-0.51353 -1.0851,1.30986 0.3547,1.13625 3.9216,0.55087 7.7082,-0.0593 11.5028,-1.03318 5.0017,-1.55563 9.6493,-4.00292 14.5227,-5.90544 2.2266,-1.09115 4.7589,-1.02489 7.0758,-1.69962 1.0503,-0.15768 1.9257,-0.74671 2.8668,-1.19546 0,0 -6.6167,5.26503 -6.6167,5.26503 l 0,0 c -0.9625,0.44282 -1.9237,0.88706 -2.9793,1.06501 -2.3386,0.44593 -4.7046,0.7584 -6.9142,1.7214 -4.8561,1.9028 -9.4935,4.36834 -14.5325,5.77465 -3.9225,0.92421 -7.9403,1.53759 -11.9561,0.79287 -3.87352,-2.16484 3.6898,-8.74285 6.6164,-6.71573 0.7753,1.39673 0.4151,3.32347 0.7486,4.82389 0.054,1.75876 -0.2233,7.20434 -1.8014,8.30143 -2.6349,1.83178 -5.5228,3.26958 -8.28423,4.90436 -2.68299,0.51562 -5.37044,-0.13699 -7.50577,-1.88044 -1.9411,-2.25627 -2.47577,-4.89773 -1.18499,-7.67274 0,0 7.73314,-3.49871 7.73314,-3.49871 z"
         id="path4280"
         style="opacity:1;fill:#65dde8;fill-opacity:1;stroke:none;stroke-width:0.1;stroke-miterlimit:4;stroke-dasharray:none;stroke-opacity:1" />
    </g>
    <g
       id="g4315"
       style="fill:#c765e8;fill-opacity:1"
       transform="matrix(0.53346796,0,0,0.45383305,317.9107,364.05418)">
      <path
         inkscape:connector-curvature="0"
         d="m 742.18948,697.71375 c 0.48648,-0.96013 1.87312,-4.01457 0.0102,-4.55809 -0.35058,-0.10229 -0.73027,0.0139 -1.09541,0.0209 0.45038,-0.71316 -4.47667,2.19544 -3.34248,1.67793 1.7111,-0.78076 3.16011,-2.27088 5.01403,-2.58777 0.98742,-0.16877 -1.51083,1.32817 -2.15128,2.09845 -1.90297,2.28875 -2.21984,3.436 -3.4897,6.14521 -2.26741,6.65122 -3.52998,13.86028 -1.59178,20.7689 0.34476,1.22887 0.89769,2.38958 1.34653,3.58437 2.15463,3.74846 5.62804,8.66223 10.70513,7.35289 0.83992,-0.21661 1.5756,-0.72598 2.3634,-1.08897 -1.59187,0.75098 -3.02136,2.39654 -4.77561,2.25295 -1.06015,-0.0868 1.41881,-1.59438 2.00884,-2.47942 2.11228,-3.16841 3.16873,-6.9037 4.09966,-10.54732 0.11311,-0.53794 0.23483,-1.07414 0.33933,-1.61382 0.11784,-0.60859 0.19335,-2.27466 0.33933,-2.34174 8.00236,-3.67681 7.68537,-5.84279 7.59111,-1.93928 -0.25593,3.85175 0.26155,7.67768 0.736,11.49084 0.2515,1.47819 -0.0523,3.59925 1.77881,3.91136 3.53862,-0.30848 11.15175,-4.84076 -0.52317,1.53813 3.76517,-3.02954 5.43004,-7.39863 6.6135,-11.92683 0.24607,-1.73295 1.61652,-6.08862 -0.89415,-6.87556 -2.74047,1.92263 2.31377,-1.65065 6.37597,-3.28795 0.35179,-0.14179 -0.35164,0.67615 -0.46802,1.03713 -0.14893,0.46195 -0.26203,0.93819 -0.32399,1.41958 -0.20379,1.58339 -0.0495,1.96208 0.15182,3.55927 0.7614,3.17568 2.36363,6.27268 5.39858,7.75963 3.15379,-0.32902 2.28665,-0.3407 -5.79133,3.40785 -0.31285,0.14518 0.52344,-0.46367 0.70635,-0.75607 0.23982,-0.3834 0.36267,-0.82855 0.54401,-1.24283 0,0 7.62609,-3.55912 7.62609,-3.55912 l 0,0 c -1.18891,4.05567 -5.52907,8.16014 -10.17195,6.76021 -3.03557,-1.94125 -4.85888,-4.99759 -5.70794,-8.46876 -0.80191,-5.10694 0.25043,-12.73513 8.76564,-11.28237 2.60489,1.79401 1.8071,5.26086 1.29121,7.93981 -1.15403,4.62121 -2.71436,9.11452 -6.31279,12.43695 -3.99308,2.38867 -9.01669,6.71276 -14.30799,6.3159 -2.00108,-0.89454 -2.02864,-2.8034 -2.1694,-4.79714 -0.41829,-3.84074 -0.99375,-7.67836 -0.84056,-11.55227 -0.053,-4.06509 -0.3562,-1.32596 7.58906,-5.64768 0.11484,-0.0625 -0.0578,0.25513 -0.0797,0.38401 -0.21343,1.25294 -0.40229,2.51098 -0.74063,3.73963 -0.90761,3.42441 -3.22145,11.45807 -5.96835,13.54706 -2.94768,2.24169 -6.26127,3.95634 -9.3919,5.93451 -0.85237,0.28537 -1.66797,0.7242 -2.5571,0.85612 -5.37079,0.79685 -8.86453,-4.25053 -11.1194,-8.28156 -0.46149,-1.23801 -1.02585,-2.44242 -1.38448,-3.71405 -1.98418,-7.03542 -0.81833,-14.35767 1.32578,-21.19858 3.69394,-8.57089 5.65121,-8.9456 14.53736,-14.28974 1.89925,-1.14221 1.73462,-0.93704 3.75157,-1.29566 0.4653,0.13053 0.97543,0.15337 1.39591,0.39159 2.00276,1.13463 1.22173,3.87305 0.52702,5.50272 0,0 -7.73314,3.49872 -7.73314,3.49872 z"
         id="path4282"
         style="opacity:1;fill:#c765e8;fill-opacity:1;stroke:none;stroke-width:0.1;stroke-miterlimit:4;stroke-dasharray:none;stroke-opacity:1" />
      <path
         inkscape:connector-curvature="0"
         d="m 778.07295,716.07941 c 1.82219,-2.71107 3.09333,-5.72492 5.63861,-7.84922 2.81451,-1.44505 5.50979,-3.15076 8.44354,-4.33514 1.15114,-0.46473 5.38317,3.14917 6.29629,3.92681 0.7965,0.73159 1.63486,1.43306 2.33974,2.25778 0.0299,-0.14266 0.49131,-0.17878 0.87192,-0.2128 0.11825,0.0152 0.23656,-0.0452 0.33599,-0.0727 0.95258,0.27534 2.06411,-0.25702 2.98465,-0.5948 0.45869,-0.29008 1.86362,-1.10862 1.37605,-0.87025 -1.88976,0.9239 -3.58881,2.27915 -5.5891,2.92999 -0.73071,0.23776 1.11066,-1.06459 1.62117,-1.63892 1.72807,-1.94416 2.9855,-4.03027 4.17487,-6.32584 1.39541,-3.77127 1.85284,-7.64532 -0.44092,-11.09525 -2.29186,-1.97079 -7.53266,1.77115 5.86774,-4.05656 0.25868,-0.1125 -0.32514,0.46912 -0.41958,0.73493 -0.38875,1.09417 -0.29996,1.59688 -0.3277,2.76795 0.79147,3.91853 4.30735,5.79486 7.74862,7.09996 2.00352,0.68995 4.06596,1.12528 6.1825,1.18853 0.89227,-0.28293 1.78081,-0.84764 2.73121,-1.21775 2.8203,-1.01144 5.20648,-2.69904 -6.4335,3.81777 -0.076,0.0425 0.13345,-0.11638 0.17779,-0.19129 0.2086,-0.35242 0.18688,-0.70608 0.23884,-1.11495 0.0491,-3.40855 0.1119,-6.76547 0.68072,-10.13377 1.01821,-4.96407 3.62989,-9.33447 7.21201,-12.86101 3.39722,-2.62574 7.16364,-4.78938 11.10403,-6.49231 0,0 -6.6091,5.24995 -6.6091,5.24995 l 0,0 c -5.13921,2.49776 9.39157,-5.64587 3.22636,-1.92436 -3.69834,3.26497 -6.39276,7.52964 -7.46209,12.3814 -0.59297,3.31926 -0.64426,6.61541 -0.56784,9.9804 -0.0625,4.28459 -3.8905,4.9682 -8.26044,6.5565 -0.9674,0.40825 -1.85101,1.08212 -2.95171,0.90735 -2.13475,-0.20073 -4.20473,-0.73354 -6.21104,-1.4937 -3.72757,-1.55081 -7.29822,-3.73555 -8.28877,-7.93459 -0.0156,-0.46665 -0.0825,-3.73458 0.38272,-4.05266 4.9382,-3.37658 6.29556,-6.5891 9.25567,-3.45912 2.43672,3.91196 2.07553,7.62677 0.72066,11.92364 -3.54336,7.3544 -7.7966,10.95885 -15.7972,14.4938 -1.03174,0.30624 -2.14154,0.54605 -3.182,0.56753 -0.12514,-0.013 -0.25381,-0.028 -0.38217,-0.0174 -0.52271,-0.008 -0.94226,0.009 -1.30723,-0.4401 -0.65453,-0.79286 -1.39584,-1.50848 -2.15563,-2.19997 -1.38203,-1.20095 -2.91025,-2.68161 -4.72935,-3.17639 -0.36986,-0.1006 -1.44354,0.12727 -1.14439,-0.11236 1.88301,-1.50837 4.07752,-2.58022 6.11628,-3.87033 -2.78336,1.83224 -4,4.78475 -5.73169,7.53029 0,0 -7.73653,3.42894 -7.73653,3.42894 z"
         id="path4284"
         style="opacity:1;fill:#c765e8;fill-opacity:1;stroke:none;stroke-width:0.1;stroke-miterlimit:4;stroke-dasharray:none;stroke-opacity:1" />
      <path
         inkscape:connector-curvature="0"
         d="m 843.76263,677.64197 c 1.95779,-2.34023 3.63057,-4.96405 4.38051,-7.94465 0.003,-0.76604 -0.1561,-1.50756 -1.14668,-1.29062 -0.37138,0.0813 -1.37985,0.63457 -1.04961,0.44623 6.94976,-3.96359 7.3777,-4.63888 4.372,-1.73658 -3.09555,4.57713 -4.77062,10.08057 -3.49165,15.54471 0.49042,0.88961 0.79182,2.01827 1.95828,2.28732 0.87227,0.20119 3.28779,-1.41727 2.45652,-1.08514 -6.21596,2.48359 -6.98067,4.78681 -4.69337,0.68492 1.40282,-3.25903 2.09351,-6.76247 2.47851,-10.27402 2.74326,-10.23678 8.02502,-6.08418 10.7488,-2.47029 1.35396,1.61262 2.44878,3.36353 4.08566,4.71192 0,0 -7.21381,4.49073 -7.21381,4.49073 l 0,0 c -1.59667,-1.45652 -2.73073,-3.24542 -4.11767,-4.88935 -0.63584,-0.80391 -0.76013,-1.05388 -1.53184,-1.6914 -0.16767,-0.13852 -0.33698,-0.29837 -0.54662,-0.35629 -0.0981,-0.0271 -0.36293,0.18335 -0.27698,0.12875 6.94185,-4.40968 7.9449,-6.57506 6.44575,-3.67878 -0.47406,3.60564 -1.19967,7.20174 -2.49547,10.60888 -2.39284,5.11836 -0.66181,2.37414 -9.43154,7.99058 -2.43258,1.55791 -4.29815,-0.31467 -5.19436,-2.50833 -0.18054,-0.76553 -0.46376,-1.51393 -0.54163,-2.29659 -0.48349,-4.85901 1.33183,-9.83519 3.67007,-13.98092 0.46511,-0.55165 0.79229,-1.25875 1.39534,-1.65495 0.50085,-0.32906 10.89145,-9.07629 11.7244,-2.64711 -0.60761,3.06274 -2.2612,5.83941 -4.19887,8.25582 0,0 -7.78574,3.35516 -7.78574,3.35516 z"
         id="path4286"
         style="opacity:1;fill:#c765e8;fill-opacity:1;stroke:none;stroke-width:0.1;stroke-miterlimit:4;stroke-dasharray:none;stroke-opacity:1" />
      <path
         inkscape:connector-curvature="0"
         d="m 858.31545,616.66014 c 2.56216,6.6508 3.9647,13.69616 5.85955,20.56274 2.39771,8.60998 5.35182,17.10155 9.26623,25.14442 0.70338,1.3403 1.34747,2.7014 2.29399,3.88641 0,0 -7.29509,4.3118 -7.29509,4.3118 l 0,0 c -0.86098,-1.3064 -1.51615,-2.71769 -2.17864,-4.13463 -3.69189,-8.20071 -6.64743,-16.73518 -9.12114,-25.37726 -1.93585,-6.75713 -3.36737,-13.75119 -6.20084,-20.19373 0,0 7.37594,-4.19975 7.37594,-4.19975 z"
         id="path4288"
         style="opacity:1;fill:#c765e8;fill-opacity:1;stroke:none;stroke-width:0.1;stroke-miterlimit:4;stroke-dasharray:none;stroke-opacity:1" />
      <path
         inkscape:connector-curvature="0"
         d="m 879.75827,645.63423 c 1.28708,4.47666 2.91622,8.82342 4.98928,12.993 0.68185,1.28408 0.27588,0.85063 1.00158,1.47346 0,0 -7.26567,4.41511 -7.26567,4.41511 l 0,0 c -0.7284,-0.92482 -0.35231,-0.36157 -1.02734,-1.75296 -1.96424,-4.25022 -3.55349,-8.63454 -5.10229,-13.05066 0,0 7.40444,-4.07795 7.40444,-4.07795 z"
         id="path4290"
         style="opacity:1;fill:#c765e8;fill-opacity:1;stroke:none;stroke-width:0.1;stroke-miterlimit:4;stroke-dasharray:none;stroke-opacity:1" />
      <path
         inkscape:connector-curvature="0"
         d="m 873.36592,644.86081 c -0.007,-1.76481 0.0712,-3.53706 -0.0261,-5.30067 0,0 7.60599,-3.87545 7.60599,-3.87545 l 0,0 c -0.0926,1.77284 -0.0225,3.5533 -0.0261,5.32723 0,0 -7.55387,3.84889 -7.55387,3.84889 z"
         id="path4292"
         style="opacity:1;fill:#c765e8;fill-opacity:1;stroke:none;stroke-width:0.1;stroke-miterlimit:4;stroke-dasharray:none;stroke-opacity:1" />
      <path
         inkscape:connector-curvature="0"
         d="m 895.07104,644.22464 c -0.51979,2.54793 -1.4478,4.55013 1.13552,6.09367 3.21705,1.0432 6.66424,0.73534 9.75499,2.17816 2.67244,1.89397 3.35379,4.58186 2.32145,7.58774 -1.11578,2.3996 -3.34275,3.61093 -5.41782,5.03355 -2.61329,1.92645 -4.26283,2.42832 -8.39289,3.55082 -0.48101,0.13073 0.72564,-0.68541 1.05681,-1.05793 0.4609,-0.51845 0.87769,-1.0745 1.31653,-1.61175 3.73319,-5.00753 7.83235,-9.72326 12.00993,-14.36089 1.40805,-1.91661 5.71867,-5.92637 4.75081,-8.59477 -1.06184,-0.68541 -2.36245,-0.55524 -3.54509,-0.25109 -0.52203,0.13426 -1.97881,0.83915 -1.51579,0.56321 7.05772,-4.20608 7.16391,-4.62832 4.73901,-1.87136 -1.79179,3.02383 -2.54427,5.8827 0.52961,8.25416 1.05718,0.32509 1.63125,0.65321 2.77986,0.37856 0.47218,-0.11291 1.73723,-0.86665 1.31226,-0.6319 -2.0004,1.10499 -3.94011,2.34207 -6.04012,3.2435 -0.4402,0.18895 0.68305,-0.67768 0.96496,-1.06499 0.28297,-0.38874 0.48001,-0.83328 0.72002,-1.24992 1.54578,-4.36859 5.49088,-9.45927 10.95226,-8.13052 2.83926,1.70201 5.42582,3.81511 8.04552,5.83801 0.27378,0.14505 0.54755,0.2901 0.82132,0.43515 0,0 -7.10528,4.60206 -7.10528,4.60206 l 0,0 c -0.28121,-0.18435 -0.56243,-0.3687 -0.84364,-0.55305 -2.45369,-1.97498 -4.92847,-4.12661 -7.81054,-5.4187 -3.41243,0.2649 -1.61441,0.26422 5.64007,-3.93098 0.22967,-0.13281 -0.41805,0.33537 -0.57844,0.54671 -0.69396,0.91439 -1.04138,2.11161 -1.45565,3.1567 -2.13897,4.5796 -3.92308,4.41275 -9.94027,7.69679 -1.49174,0.81415 -3.21439,0.22634 -4.58882,-0.45721 -3.21173,-2.81169 -2.95976,-5.78597 -1.10074,-9.40783 0.34116,-0.50608 0.51992,-1.17337 1.02347,-1.51826 3.05156,-2.09001 9.987,-8.03744 14.39938,-4.34789 0.13664,0.34707 0.36309,0.67117 0.40992,1.04121 0.324,2.55997 -3.52731,6.65223 -4.96416,8.48095 -4.18176,4.57906 -8.30341,9.23044 -11.94255,14.26013 -0.20822,0.28668 -1.64077,2.41514 -2.21293,2.72052 -6.59452,3.51971 -11.07633,5.86373 -7.3136,2.794 1.99238,-1.42328 4.33029,-2.42183 5.64554,-4.60838 1.24155,-2.51503 0.77385,-4.87313 -1.66504,-6.46061 -3.18198,-1.27432 -6.71953,-0.8869 -9.86832,-2.28285 -2.74278,-1.99217 -2.29774,-3.90559 -1.65425,-6.94649 0,0 7.6267,-3.69823 7.6267,-3.69823 z"
         id="path4294"
         style="opacity:1;fill:#c765e8;fill-opacity:1;stroke:none;stroke-width:0.1;stroke-miterlimit:4;stroke-dasharray:none;stroke-opacity:1" />
      <path
         inkscape:connector-curvature="0"
         d="m 910.25598,606.63569 c -2.70981,-5.76621 -3.69034,-3.01233 5.79702,-7.11545 3.13546,5.55461 6.14062,11.18256 9.42923,16.64949 4.00096,7.04794 8.5674,13.74315 13.50403,20.16304 2.92612,3.34469 4.95387,0.77554 -5.01377,5.0896 -0.2529,0.10945 0.36813,-0.42435 0.46895,-0.68081 0.14688,-0.37359 0.17395,-0.78377 0.26092,-1.17566 0,0 7.57706,-3.70226 7.57706,-3.70226 l 0,0 c -0.002,0.0163 -0.25221,2.36684 -0.39357,2.45844 -6.81034,4.41326 -6.79364,6.29786 -10.02974,2.23794 -4.73387,-6.58986 -9.27692,-13.31687 -13.34543,-20.34292 -3.3698,-5.4521 -6.44224,-11.07761 -9.82046,-16.5242 8.3588,-6.22054 5.92309,-6.97518 8.9417,-1.25695 0,0 -7.37594,4.19974 -7.37594,4.19974 z"
         id="path4296"
         style="opacity:1;fill:#c765e8;fill-opacity:1;stroke:none;stroke-width:0.1;stroke-miterlimit:4;stroke-dasharray:none;stroke-opacity:1" />
      <path
         inkscape:connector-curvature="0"
         d="m 938.91678,611.55635 c -4.00537,6.2694 -8.74887,11.82915 -14.21145,16.85785 -6.76916,5.38432 -14.36037,9.78206 -22.15551,13.50211 0,0 6.49852,-5.1809 6.49852,-5.1809 l 0,0 c 4.79082,-2.31173 0.2444,-0.20231 -2.18158,1.59617 -1.01164,0.74997 2.21102,-1.2085 3.28375,-1.86815 3.28064,-2.01732 3.97565,-2.6564 7.08959,-4.99736 5.4089,-4.88238 10.25377,-10.23471 13.90464,-16.5892 0,0 7.77204,-3.32052 7.77204,-3.32052 z"
         id="path4298"
         style="opacity:1;fill:#c765e8;fill-opacity:1;stroke:none;stroke-width:0.1;stroke-miterlimit:4;stroke-dasharray:none;stroke-opacity:1" />
      <path
         inkscape:connector-curvature="0"
         d="m 951.05113,622.647 c 0.13176,1.40281 0.563,2.74364 1.04485,4.05888 0.10483,0.28613 0.59213,2.29105 0.84781,1.39522 -8.82248,5.04014 -7.23605,5.759 -6.82411,1.37677 0,0 7.53792,-3.77077 7.53792,-3.77077 l 0,0 c -0.26914,4.9115 -0.0376,2.96623 -7.70947,7.29412 -1.6676,-1.42377 -1.75977,-4.39895 -2.37179,-6.35786 0,0 7.47479,-3.99636 7.47479,-3.99636 z"
         id="path4300"
         style="opacity:1;fill:#c765e8;fill-opacity:1;stroke:none;stroke-width:0.1;stroke-miterlimit:4;stroke-dasharray:none;stroke-opacity:1" />
      <path
         inkscape:connector-curvature="0"
         d="m 957.09703,616.04278 c -3.22178,-0.1795 -9.89866,3.37007 2.43829,-2.72349 0.32201,-0.15905 -0.57597,0.45445 -0.76218,0.76155 -0.19377,0.31957 -0.23078,0.71094 -0.34618,1.06641 0.17286,3.53588 3.82112,4.66871 6.81802,4.74864 0.5425,-0.11852 1.11539,-0.14086 1.6275,-0.35555 0.50143,-0.2102 1.85791,-1.12032 1.36189,-0.89766 -2.02949,0.91105 -3.82653,2.39924 -5.97684,2.96933 -0.60376,0.16007 0.69483,-1.04905 0.9246,-1.62988 0.66392,-1.67835 0.52207,-2.47116 0.57625,-4.27085 -0.65662,-3.52225 -1.45256,-7.69851 -3.73163,-10.59914 -2.77597,0.45946 -4.58556,0.80643 6.46741,-3.42277 0.35441,-0.1356 -0.39341,0.6625 -0.48129,1.03165 -0.13901,0.58393 -0.1863,1.19041 -0.19057,1.79065 -0.0128,1.80315 0.25468,2.52687 0.645,4.28764 1.38485,3.8632 2.37478,6.87177 7.00013,6.28678 4.21159,-2.28089 8.51931,-4.21607 13.10631,-5.60148 6.6476,-1.8136 13.35031,-3.46659 20.05606,-5.06589 2.8427,-0.65461 5.6705,-1.38444 8.5738,-1.71071 0,0 -6.8184,5.07602 -6.8184,5.07602 l 0,0 c -2.8027,0.34068 -5.5466,1.0291 -8.3016,1.62815 -6.70038,1.58502 -13.40571,3.20444 -20.01961,5.11252 -4.62049,1.51548 -8.85515,3.7769 -13.36075,5.53172 -4.95533,-0.0586 -6.01812,-3.10339 -7.56316,-7.3117 -0.47155,-1.96534 -0.69085,-2.47238 -0.79488,-4.47986 -0.21682,-4.18429 2.91693,-10.88196 8.95467,-7.45729 2.20446,3.20402 3.11345,7.39552 3.8695,11.13545 0.0929,7.69899 -1.66943,7.02278 -9.47023,11.96331 -1.29532,0.82038 -1.78062,0.69948 -3.26825,0.86521 -3.50886,-0.40749 -7.15025,-2.02162 -7.5944,-5.95115 0.0572,-0.47278 0.0177,-0.96763 0.17155,-1.41834 1.34168,-3.93165 8.63569,-6.6203 13.04326,-6.20505 0,0 -6.95427,4.84578 -6.95427,4.84578 z"
         id="path4302"
         style="opacity:1;fill:#c765e8;fill-opacity:1;stroke:none;stroke-width:0.1;stroke-miterlimit:4;stroke-dasharray:none;stroke-opacity:1" />
    </g>
    <g
       id="g4374"
       style="fill:#646464;fill-opacity:0.90980392"
       transform="matrix(0.44543003,0,0,0.41667986,7.9449783,183.12504)">
      <path
         inkscape:connector-curvature="0"
         d="m 829.94749,751.06165 c 4.50592,-0.2675 7.84536,2.35366 10.78831,5.43879 4.87522,6.49762 5.78555,14.64789 6.58866,22.48518 0.46109,6.87407 -1.20469,13.09405 -5.2835,18.59462 -3.86654,4.59681 -13.80841,9.73195 -8.72942,1.06754 4.19605,-5.95453 7.99023,-12.16422 11.70413,-18.42575 3.04996,-5.19616 5.94474,-10.48967 8.47662,-15.95895 0.91127,1.58672 0.22979,-2.11616 0.68608,-1.70663 0.1947,0.17475 -0.17693,0.87523 0.0675,0.78195 2.28514,-0.87212 4.20402,-2.61553 6.55001,-3.3075 0.60758,-0.17921 -0.67089,1.07831 -0.93867,1.65239 -0.39462,0.84601 -0.69615,1.7324 -1.04422,2.59861 -1.48078,5.06 -3.18006,11.3068 -0.61157,16.35546 0.40008,0.7864 1.04933,1.41877 1.57399,2.12815 2.17624,1.61973 4.30101,1.77537 6.82394,0.83061 0.76031,-0.28471 2.88367,-1.49341 2.16571,-1.1144 -1.76218,0.93026 -3.53227,1.84544 -5.29841,2.76815 0,0 7.73554,-3.07242 7.73554,-3.07242 l 0,0 c -3.6624,2.2426 -10.79048,8.61784 -16.35291,6.27338 -0.81171,-0.34212 -1.46064,-0.98501 -2.19096,-1.47752 -0.55989,-0.7874 -1.24893,-1.49738 -1.67967,-2.36222 -2.5946,-5.20942 -1.05093,-11.56564 0.33986,-16.84375 0.10837,-0.30996 1.40282,-4.20097 1.70536,-4.43723 1.50041,-1.17167 11.28483,-8.9882 8.09382,-2.53672 -2.66069,5.50005 -5.59274,10.86296 -8.68148,16.13391 -3.6634,6.21912 -7.37728,12.40708 -11.48782,18.34407 -3.0059,4.68604 -0.26735,2.53334 -7.7651,6.61559 -0.46186,0.25147 0.80051,-0.68222 1.20076,-1.02333 4.44008,-5.43809 6.07116,-11.07149 5.77032,-18.13271 -0.76996,-7.6423 -1.61112,-15.64614 -6.48206,-21.91564 -2.87249,-2.89665 -6.17219,-5.32411 -10.4824,-4.63715 0,0 6.75759,-5.11648 6.75759,-5.11648 z"
         id="path4362"
         style="opacity:1;fill:#646464;fill-opacity:0.90980392;stroke:none;stroke-width:0.1;stroke-miterlimit:4;stroke-dasharray:none;stroke-opacity:1" />
      <path
         inkscape:connector-curvature="0"
         d="m 884.95337,764.15352 c -2.21404,5.46705 -1.93076,11.39628 -1.06874,17.10271 1.7279,7.57309 5.54275,14.24398 10.41192,20.2069 1.6162,1.40593 3.87041,5.17665 6.44908,4.66198 0,0 -6.885,4.96475 -6.885,4.96475 l 0,0 c -2.84455,-0.63614 -4.74004,-3.40503 -6.61156,-5.4136 -4.84269,-6.15137 -8.75098,-12.91679 -10.55703,-20.61095 -0.97279,-5.81308 -1.25402,-11.70495 0.5282,-17.41308 0,0 7.73313,-3.49871 7.73313,-3.49871 z"
         id="path4364"
         style="opacity:1;fill:#646464;fill-opacity:0.90980392;stroke:none;stroke-width:0.1;stroke-miterlimit:4;stroke-dasharray:none;stroke-opacity:1" />
      <path
         inkscape:connector-curvature="0"
         d="m 897.02361,787.93203 c -5.96461,1.59851 -11.46324,4.688 -17.05695,7.27355 -4.36284,2.14654 -8.78982,4.10753 -13.34778,5.79742 0,0 6.47109,-5.06546 6.47109,-5.06546 l 0,0 c 4.51623,-1.70881 8.90395,-3.68884 13.2484,-5.79718 5.70191,-2.64122 11.30289,-5.8265 17.44459,-7.29193 0,0 -6.75935,5.0836 -6.75935,5.0836 z"
         id="path4366"
         style="opacity:1;fill:#646464;fill-opacity:0.90980392;stroke:none;stroke-width:0.1;stroke-miterlimit:4;stroke-dasharray:none;stroke-opacity:1" />
      <path
         inkscape:connector-curvature="0"
         d="m 892.85522,798.44204 c 3.62775,0.0615 7.20148,-1.10645 10.48191,-2.56889 5.18337,-2.90241 -2.60343,1.48131 -3.84011,1.92939 -0.62006,0.22466 0.96371,-0.90307 1.40346,-1.39456 1.22002,-1.3636 2.00736,-2.83389 2.74712,-4.48673 0.66508,-1.81891 0.22553,-5.1984 -2.34958,-4.78313 -3.04229,2.24914 1.90402,-1.46501 5.76168,-2.86013 0.44807,-0.16205 -0.49222,0.82582 -0.63632,1.27998 -0.1764,0.55594 -0.27567,1.13914 -0.31588,1.72101 -0.12303,1.78008 0.13227,2.50698 0.46028,4.26028 0.98964,3.60864 3.12322,6.07611 6.44796,7.64537 0.37413,0.0466 0.74574,0.12313 1.1224,0.13981 0.89156,0.0395 1.34569,0.004 2.14409,-0.38859 0.34286,-0.16873 1.30127,-0.80081 0.96665,-0.61628 -6.28339,3.46494 -8.29843,5.11201 -5.41588,2.86004 1.92318,-1.7754 3.52868,-3.84875 5.50884,-5.57094 2.91536,-2.18514 6.19006,-3.82986 9.43679,-5.4793 2.28217,-1.15943 -4.43542,2.55753 -6.67824,3.79137 -0.3862,0.21246 0.67709,-0.57123 0.96082,-0.90856 1.62975,-2.01656 1.8361,-4.59826 2.0878,-7.08201 0.25081,-3.24791 0.27793,-6.508 0.24287,-9.76377 -1.34004,-3.2661 7.59515,-8.37724 7.55106,-4.55174 -0.18757,1.88758 0.51545,3.56806 1.29713,5.24723 1.18331,2.25544 2.53644,4.40154 4.00117,6.4787 0.96175,1.15346 1.49191,2.42267 1.73753,3.88716 -0.15444,2.64727 -2.4041,4.47777 -4.45418,5.82714 -2.84566,1.60506 -5.69131,3.21013 -8.53696,4.81519 0,0 6.5633,-5.25356 6.5633,-5.25356 l 0,0 c -1.95116,1.15412 -3.90231,2.30825 -5.85347,3.46237 2.01788,-1.12261 4.0225,-2.571 4.75985,-4.87878 -0.17038,-1.35276 -0.6343,-2.49255 -1.50169,-3.56721 -1.48006,-2.12199 -2.80812,-4.33959 -4.03457,-6.61971 -0.86301,-1.75119 -1.70073,-3.5385 -1.57162,-5.53491 -2.9e-4,-3.79924 8.88753,-7.92064 7.58198,-3.14974 -0.0603,3.28915 -0.10198,6.57996 -0.27947,9.86538 -0.21126,2.52638 -0.27416,5.29613 -1.79458,7.43666 -2.04148,3.34406 -3.33909,3.09743 -8.74278,5.75802 -2.28735,1.1262 4.39893,-2.5789 6.59677,-3.87111 0.51806,-0.3046 -2.35005,1.34766 -1.53514,0.94541 -2.11947,1.5681 -3.69581,3.67607 -5.51435,5.55354 -3.47908,3.13093 -8.68074,7.26895 -13.68415,5.79539 -3.42383,-1.83543 -5.68726,-4.54896 -6.75019,-8.3497 -1.47237,-7.04621 -0.52114,-11.3622 8.96513,-13.24703 2.8615,0.76061 3.7441,3.47721 3.07388,6.20108 -2.5962,6.47569 -7.9936,9.80461 -14.48127,12.63111 -3.42876,1.38245 -7.05735,2.44307 -10.78881,2.37793 0,0 6.85877,-4.98318 6.85877,-4.98318 z"
         id="path4368"
         style="opacity:1;fill:#646464;fill-opacity:0.90980392;stroke:none;stroke-width:0.1;stroke-miterlimit:4;stroke-dasharray:none;stroke-opacity:1" />
      <path
         inkscape:connector-curvature="0"
         d="m 948.06265,732.72074 c 1.30207,7.05064 3.35554,13.94551 5.05318,20.90916 1.32426,5.29419 2.02061,10.71522 3.12427,16.05233 0,0 -7.41469,3.93926 -7.41469,3.93926 l 0,0 c -0.76001,-5.41652 -1.52656,-10.8379 -2.79221,-16.1659 -1.71997,-6.99469 -3.75217,-13.90515 -5.52442,-20.88596 0,0 7.55387,-3.84889 7.55387,-3.84889 z"
         id="path4370"
         style="opacity:1;fill:#646464;fill-opacity:0.90980392;stroke:none;stroke-width:0.1;stroke-miterlimit:4;stroke-dasharray:none;stroke-opacity:1" />
      <path
         inkscape:connector-curvature="0"
         d="m 952.85907,761.99665 c -4.83732,0.65509 -9.5596,2.03603 -14.20145,3.51836 0,0 6.5585,-5.0755 6.5585,-5.0755 l 0,0 c 4.74126,-1.44929 9.56086,-2.89097 14.50171,-3.42604 0,0 -6.85876,4.98318 -6.85876,4.98318 z"
         id="path4372"
         style="opacity:1;fill:#646464;fill-opacity:0.90980392;stroke:none;stroke-width:0.1;stroke-miterlimit:4;stroke-dasharray:none;stroke-opacity:1" />
    </g>
    <path
       style="fill:none;fill-rule:evenodd;stroke:#000000;stroke-width:1;stroke-linecap:butt;stroke-linejoin:miter;stroke-miterlimit:4;stroke-dasharray:4, 4;stroke-dashoffset:0;stroke-opacity:1"
       d="M 351.42857,528.07648 350,786.64791"
       id="path4407"
       inkscape:connector-curvature="0" />
    <path
       style="fill:none;fill-rule:evenodd;stroke:#000000;stroke-width:1;stroke-linecap:butt;stroke-linejoin:miter;stroke-miterlimit:4;stroke-dasharray:4, 4;stroke-dashoffset:0;stroke-opacity:1"
       d="m 390.7143,527.36221 -1.42857,258.57143"
       id="path4407-7"
       inkscape:connector-curvature="0" />
    <path
       style="fill:none;fill-rule:evenodd;stroke:#000000;stroke-width:1;stroke-linecap:butt;stroke-linejoin:miter;stroke-miterlimit:4;stroke-dasharray:4, 4;stroke-dashoffset:0;stroke-opacity:1"
       d="m 575,530.21935 -1.42857,258.57143"
       id="path4407-2"
       inkscape:connector-curvature="0" />
    <ellipse
       style="opacity:1;fill:#65dde8;fill-opacity:1;stroke:none;stroke-width:1;stroke-miterlimit:4;stroke-dasharray:4, 4;stroke-dashoffset:0;stroke-opacity:1"
       id="path4452-6"
       cx="350"
       cy="782.36218"
       rx="4.2857141"
       ry="3.5714285" />
    <ellipse
       style="opacity:1;fill:#65dde8;fill-opacity:1;stroke:none;stroke-width:1;stroke-miterlimit:4;stroke-dasharray:4, 4;stroke-dashoffset:0;stroke-opacity:1"
       id="path4452-2"
       cx="574.28571"
       cy="787.50507"
       rx="4.2857141"
       ry="3.5714285" />
    <g
       id="g4519">
      <path
         inkscape:connector-curvature="0"
         d="m 224.13883,571.13633 c 9.7288,-1.27713 19.60804,-1.88523 29.45825,-2.55878 15.53419,-1.00783 31.13511,-1.35943 46.70691,-2.00079 10.51667,-0.47368 21.05015,-0.70766 31.58748,-0.81711 5.60473,0.0861 11.20207,0.32526 16.79116,0.61194 0,0 -6.8032,3.26441 -6.8032,3.26441 l 0,0 c -5.4871,-0.37798 -10.99911,-0.6149 -16.51468,-0.67551 -10.45925,0.0987 -20.91556,0.30709 -31.358,0.73305 -15.55215,0.58472 -31.13477,0.90925 -46.63525,1.99548 -10.01303,0.73582 -20.07679,1.39439 -29.91908,2.88783 0,0 6.68641,-3.44052 6.68641,-3.44052 z"
         id="path4439"
         style="opacity:1;fill:#65dde8;fill-opacity:1;stroke:none;stroke-width:1;stroke-miterlimit:4;stroke-dasharray:4, 4;stroke-dashoffset:0;stroke-opacity:1" />
      <path
         inkscape:connector-curvature="0"
         d="m 357.53234,568.03259 c 5.79799,-0.0528 11.56786,0.18922 17.34764,0.36144 9.86457,0.40963 19.71733,0.87941 29.59108,1.2401 13.54286,0.32998 27.09623,0.58551 40.648,0.83802 16.8734,0.28987 33.7596,0.34062 50.64261,0.37901 14.29343,-0.0944 28.57293,0.15615 42.8535,0.3895 5.1496,0.0788 10.29959,0.15849 15.45168,0.19275 2.78078,0.0115 5.56171,0.0118 8.34257,0.0158 2.81035,0.004 5.62067,-0.002 8.43079,-0.0188 0.35557,-0.002 0.71112,-0.005 1.06665,-0.008 0,0 -7.14697,2.394 -7.14697,2.394 l 0,0 c -0.34003,-0.002 -0.68008,-0.006 -1.02015,-0.007 -2.77914,-0.0148 -5.55846,-0.0184 -8.33776,-0.0123 -2.79953,0.006 -5.59969,0.0192 -8.39887,-0.008 -5.03355,-0.0699 -10.05999,-0.22741 -15.09144,-0.32132 -14.17959,-0.29498 -28.36114,-0.56059 -42.55987,-0.47118 -16.91173,-0.0406 -33.82617,-0.0969 -50.7295,-0.36545 -13.62422,-0.23666 -27.25204,-0.45763 -40.86647,-0.78406 -9.91323,-0.3591 -19.80766,-0.8172 -29.71854,-1.19023 -5.85454,-0.16179 -11.70722,-0.36367 -17.57668,-0.25487 0,0 7.07173,-2.36846 7.07173,-2.36846 z"
         id="path4441"
         style="opacity:1;fill:#65dde8;fill-opacity:1;stroke:none;stroke-width:1;stroke-miterlimit:4;stroke-dasharray:4, 4;stroke-dashoffset:0;stroke-opacity:1" />
      <path
         inkscape:connector-curvature="0"
         d="m 587.24031,570.43758 c 5.63907,0.48 11.40192,0.55867 17.12558,0.50228 12.08008,-0.16466 24.11625,-0.64953 36.18456,-0.92552 15.36303,-0.36903 30.73345,-0.33164 46.08575,0.079 12.54611,0.35292 25.09024,0.9023 37.67196,0.83009 5.77625,-0.0828 11.5435,-0.25765 17.30292,-0.46508 0,0 -8.17947,2.66843 -8.17947,2.66843 l 0,0 c -5.68861,0.15197 -11.37915,0.30466 -17.07795,0.35651 -12.52014,-0.007 -24.99399,-0.55573 -37.47736,-0.92682 -15.35427,-0.39724 -30.72603,-0.41908 -46.086,-0.0198 -12.15503,0.29714 -24.27728,0.80361 -36.44527,0.9924 -5.86378,0.0497 -11.75262,-0.0265 -17.53919,-0.49151 0,0 8.43447,-2.60002 8.43447,-2.60002 z"
         id="path4443"
         style="opacity:1;fill:#65dde8;fill-opacity:1;stroke:none;stroke-width:1;stroke-miterlimit:4;stroke-dasharray:4, 4;stroke-dashoffset:0;stroke-opacity:1" />
      <ellipse
         ry="5.7521658"
         rx="6.4664493"
         cy="566.64795"
         cx="350"
         id="path4452-6-0"
         style="opacity:1;fill:none;fill-opacity:1;stroke:#65dde8;stroke-width:3;stroke-miterlimit:4;stroke-dasharray:none;stroke-dashoffset:0;stroke-opacity:0.55686275" />
      <ellipse
         ry="5.7521658"
         rx="6.4664493"
         cy="571.21936"
         cx="577.14288"
         id="path4452-6-0-3"
         style="opacity:1;fill:none;fill-opacity:1;stroke:#65dde8;stroke-width:3;stroke-miterlimit:4;stroke-dasharray:none;stroke-dashoffset:0;stroke-opacity:0.55686275" />
    </g>
  </g>
</svg>
